<svg id="레이어_1" data-name="레이어 1" xmlns="http://www.w3.org/2000/svg" viewBox="0 0 768.68 603.78"><defs><style>.cls-1{fill:#efefef;}.cls-2{fill:#231815;}.cls-3{fill:#595757;}.cls-4{fill:none;stroke:#231815;stroke-miterlimit:10;stroke-width:0.5px;}.cls-5{fill:#1bb8ce;}.cls-6{fill:#fff;}</style></defs><title>네츠모빌리티_최종 CS6</title><rect class="cls-1" x="0.05" width="265" height="603.78"/><path class="cls-2" d="M60.86,454.07c0,3.09-1.74,5.32-4.59,5.32s-4.6-2.23-4.6-5.32,1.75-5.33,4.6-5.33S60.86,451,60.86,454.07Zm-2.36,0c0-1.77-.77-3.12-2.24-3.12S54,452.3,54,454.07s.77,3.12,2.26,3.12S58.5,455.84,58.5,454.07Z" transform="translate(0.05)"/><path class="cls-2" d="M68.67,456.21c0,1.86-1.5,3.18-3.74,3.18a3.37,3.37,0,0,1-3.73-3.21h2.29A1.34,1.34,0,0,0,65,457.35a1.21,1.21,0,0,0,1.35-1.14c0-.72-.62-1.17-1.47-1.17h-.86v-1.86h.86A1.19,1.19,0,0,0,66.22,452a1.11,1.11,0,0,0-1.2-1.15A1.26,1.26,0,0,0,63.69,452H61.4a3.29,3.29,0,0,1,3.54-3.21c2.08,0,3.47,1.26,3.47,3.09a2.48,2.48,0,0,1-1,2.12A2.38,2.38,0,0,1,68.67,456.21Z" transform="translate(0.05)"/><path class="cls-2" d="M69.16,458.12a1.33,1.33,0,1,1,1.32,1.32A1.31,1.31,0,0,1,69.16,458.12Z" transform="translate(0.05)"/><path class="cls-2" d="M84.94,455.58H86a4.66,4.66,0,0,1-4.71,3.8,5.31,5.31,0,0,1,0-10.62A4.65,4.65,0,0,1,86,452.55H84.94a3.59,3.59,0,0,0-3.64-2.77,4.29,4.29,0,0,0,0,8.58A3.59,3.59,0,0,0,84.94,455.58Z" transform="translate(0.05)"/><path class="cls-2" d="M97.86,454.07a5.16,5.16,0,1,1-5.16-5.31A5.23,5.23,0,0,1,97.86,454.07Zm-1,0a4.12,4.12,0,1,0-4.12,4.32A4.21,4.21,0,0,0,96.81,454.07Z" transform="translate(0.05)"/><path class="cls-2" d="M106.38,459.17H99.83V449h1v9.24h5.52Z" transform="translate(0.05)"/><path class="cls-2" d="M117.08,454.07a5.16,5.16,0,1,1-5.16-5.31A5.23,5.23,0,0,1,117.08,454.07Zm-1,0a4.12,4.12,0,1,0-4.12,4.32A4.21,4.21,0,0,0,116,454.07Z" transform="translate(0.05)"/><path class="cls-2" d="M120.09,455.46v3.71h-1V449h3.68c2.23,0,3.77,1.24,3.77,3.25a3.12,3.12,0,0,1-2.73,3.15l3.17,3.8h-1.29l-3.1-3.71Zm2.62-1c1.61,0,2.76-.86,2.76-2.27s-1.15-2.28-2.76-2.28h-2.62v4.55Z" transform="translate(0.05)"/><path class="cls-2" d="M55.72,470.53a3,3,0,0,1-1.84-1.74,3.27,3.27,0,0,1-2,1.92l-.46-.73a2.81,2.81,0,0,0,1.93-2.61v-.28H51.74v-.75H56v.75H54.31v.28a2.66,2.66,0,0,0,1.85,2.44ZM58.2,473v.76H52.9v-2.54h.9V473Zm-1.1-5v-2.17H58v5.94h-.9v-3H55.67v-.77Z" transform="translate(0.05)"/><path class="cls-2" d="M66.19,469.69v.73H59.06v-.73h1.7V468.6a1.33,1.33,0,0,1-.94-1.2c0-1,1.08-1.53,2.81-1.53s2.81.57,2.81,1.53a1.36,1.36,0,0,1-1,1.21v1.08Zm-.86,2.71c0,.94-1,1.46-2.72,1.46s-2.71-.52-2.71-1.46,1-1.45,2.71-1.45S65.33,471.48,65.33,472.4Zm-4.58-5c0,.52.7.82,1.88.82s1.88-.3,1.88-.82-.71-.81-1.88-.81S60.75,466.88,60.75,467.4Zm3.67,5c0-.48-.65-.74-1.81-.74s-1.79.26-1.79.74.64.75,1.79.75S64.42,472.9,64.42,472.4Zm-2.77-2.71h1.94v-.83a7,7,0,0,1-1,.07,7.28,7.28,0,0,1-1-.07Z" transform="translate(0.05)"/><path class="cls-2" d="M71.66,470.19a2.85,2.85,0,0,1-1.48-1.5,3,3,0,0,1-1.55,1.72l-.48-.72a2.74,2.74,0,0,0,1.59-2.45v-1h.87v1a2.42,2.42,0,0,0,1.53,2.25Zm-2.14.87h5.34v2.81H74v-2.06H69.52Zm5.34-5.33v4.93H74v-2.12h-.83v2.07h-.85v-4.74h.85v1.92H74v-2.06Z" transform="translate(0.05)"/><path class="cls-2" d="M79.9,470.18a3.13,3.13,0,0,1-1.81-1.7,3.32,3.32,0,0,1-1.9,1.93l-.48-.74A2.83,2.83,0,0,0,77.62,467v-.8h.91V467a2.59,2.59,0,0,0,1.84,2.43ZM82,472.33c0,1-1,1.53-2.63,1.53s-2.63-.57-2.63-1.53,1-1.52,2.63-1.52S82,471.38,82,472.33Zm-.89,0c0-.5-.64-.79-1.74-.79s-1.73.29-1.73.79.63.8,1.73.8S81.14,472.85,81.14,472.33Zm1.92-4.59v.77H81.94v2.1H81v-4.89h.9v2Z" transform="translate(0.05)"/><path class="cls-3" d="M55,498.44c0,1.76-1,3-3.14,3.58l-.21-.46A4,4,0,0,0,54,500.08l-2.31.18-.09-.48,2.62-.13a3,3,0,0,0,.17-.74H52v-.47Zm2.39,6.22v.47H52.72v-1.77h3.87v-.76H52.7v-.47h4.45v1.68H53.27v.85Zm-.82-4.35H55v-.48h1.55v-1.74h.57v3.7h-.57Z" transform="translate(0.05)"/><path class="cls-3" d="M59.37,503a15.88,15.88,0,0,0,3.11-.23l.05.48a16.61,16.61,0,0,1-3.2.24h-.52v-2.76h2.53v-1.51H58.8v-.49h3.1v2.48H59.37Zm4.88-4.95v7.16h-.57v-3.88H62.32v-.49h1.36v-2.79Z" transform="translate(0.05)"/><path class="cls-3" d="M71.94,501.74v.49h-6.3v-.49ZM67,504.57h4.23v.49H66.47V503H67Zm4.18-3.82H66.5v-2.41h.57v1.93h4.14Z" transform="translate(0.05)"/><path class="cls-3" d="M80.73,502.66H77.86v2.57h-.57v-2.57H74.45v-.49h6.28Zm-5.9-1.59c1.17-.18,2.44-1,2.44-2V499H75.05v-.49h5.06V499h-2.2v.07c0,1,1.27,1.8,2.43,2l-.22.46a3.53,3.53,0,0,1-2.54-1.67,3.49,3.49,0,0,1-2.53,1.67Z" transform="translate(0.05)"/><path class="cls-3" d="M87.85,503.81v.49H81.53v-.49h1.58v-2a1.63,1.63,0,0,1-1-1.47c0-1.11,1-1.83,2.52-1.83s2.51.72,2.51,1.83a1.64,1.64,0,0,1-.93,1.47v2Zm-3.17-2.08c1.14,0,2-.54,2-1.35s-.83-1.36-2-1.36-2,.54-2,1.36S83.54,501.73,84.68,501.73Zm-1,2.08h2v-1.73a4.08,4.08,0,0,1-1,.12,3.92,3.92,0,0,1-1-.12Z" transform="translate(0.05)"/><path class="cls-3" d="M91.8,502a2.63,2.63,0,0,1-1.39-1.47A2.88,2.88,0,0,1,89,502.14l-.31-.46a2.53,2.53,0,0,0,1.46-2.19v-1h.55v1a2.24,2.24,0,0,0,1.43,2Zm-2,.85h4.64v2.42h-.57v-1.94H89.85Zm4.64-4.72v4.31H94v-1.94H93v1.9h-.53v-4.15H93V500h1v-1.88Z" transform="translate(0.05)"/><path class="cls-3" d="M99.44,502a3.06,3.06,0,0,1-1.68-1.67A3,3,0,0,1,96,502.15l-.29-.47a2.68,2.68,0,0,0,1.74-2.48v-.75H98v.79a2.51,2.51,0,0,0,1.71,2.24Zm1.75,2c0,.82-.86,1.29-2.27,1.29s-2.28-.47-2.28-1.29.87-1.29,2.28-1.29S101.19,503.12,101.19,503.93Zm-.56,0c0-.51-.65-.81-1.71-.81s-1.72.3-1.72.81.66.82,1.72.82S100.63,504.45,100.63,503.93Zm1.53-4v.49h-1v2h-.57v-4.35h.57V500Z" transform="translate(0.05)"/><path class="cls-3" d="M104.84,503.12c.78,0,1.57-.08,2.29-.17l0,.43a30.38,30.38,0,0,1-4.33.27l-.07-.49,1.51,0v-2.22h.56Zm1-1.09a16.86,16.86,0,0,0,.21-2.67h-2.94v-.49h3.5v.36a17.28,17.28,0,0,1-.21,2.85Zm3.4-.44h-1.14v3.64h-.57v-7.15h.57v3h1.14Z" transform="translate(0.05)"/><path class="cls-3" d="M117.93,503.82v.49h-6.29v-.49h2.85v-1.58H112.4v-3.65H113v1.31h3.65v-1.31h.55v3.65h-2.1v1.58Zm-5-2.06h3.65v-1.37H113Z" transform="translate(0.05)"/><path class="cls-3" d="M125,503.81v.49h-6.3v-.49h2.87v-1.76h.56v1.76Zm-6-2c1.13-.2,2.53-1.2,2.53-2.36v-.22h-2.33v-.49h5.25v.49h-2.33v.22c0,1.16,1.41,2.14,2.55,2.34l-.22.47a3.79,3.79,0,0,1-2.62-1.94,3.76,3.76,0,0,1-2.6,2Z" transform="translate(0.05)"/><path class="cls-3" d="M129,502a2.63,2.63,0,0,1-1.39-1.47,2.89,2.89,0,0,1-1.44,1.65l-.3-.46a2.55,2.55,0,0,0,1.46-2.19v-1h.54v1a2.24,2.24,0,0,0,1.44,2Zm-2,.85h4.63v2.42h-.56v-1.94h-4.07Zm4.63-4.72v4.31h-.54v-1.94h-.95v1.9h-.54v-4.15h.54V500h.95v-1.88Z" transform="translate(0.05)"/><path class="cls-3" d="M136.63,502a3,3,0,0,1-1.67-1.67,3.07,3.07,0,0,1-1.74,1.87l-.3-.47a2.67,2.67,0,0,0,1.74-2.48v-.75h.57v.79a2.51,2.51,0,0,0,1.71,2.24Zm1.75,2c0,.82-.85,1.29-2.27,1.29s-2.27-.47-2.27-1.29.86-1.29,2.27-1.29S138.38,503.12,138.38,503.93Zm-.56,0c0-.51-.65-.81-1.71-.81s-1.71.3-1.71.81.66.82,1.71.82S137.82,504.45,137.82,503.93Zm1.53-4v.49h-1v2h-.57v-4.35h.57V500Z" transform="translate(0.05)"/><path class="cls-3" d="M146.34,503.78v.49H140v-.49Zm-.66-3.27c0,1.18-1.06,2-2.51,2s-2.51-.78-2.51-2,1.07-2,2.51-2S145.68,499.33,145.68,500.51Zm-4.48,0c0,.87.85,1.47,2,1.47s2-.6,2-1.47-.85-1.47-2-1.47S141.2,499.64,141.2,500.51Z" transform="translate(0.05)"/><path class="cls-3" d="M153.44,503.84v.49h-6.3v-.49H150v-1.39h-2.06v-2.17h4.14v-1.17h-4.16v-.49h4.72v2.13H148.5V502h4.3v.48h-2.24v1.39Z" transform="translate(0.05)"/><path class="cls-3" d="M162.21,502.12h-2.86v3.12h-.57v-3.12h-2.84v-.49h4.66a11.22,11.22,0,0,0,.21-2.46V499h-4.07v-.49h4.63v.62a11.22,11.22,0,0,1-.21,2.46h1.05Z" transform="translate(0.05)"/><path class="cls-3" d="M169.33,501.88v.48h-2.84v1.43h-.56v-1.43H163v-.48Zm-4.93,2.71h4.22v.48h-4.79v-1.93h.57Zm4.08-3.43h-4.61V498.3h.56v.95h3.49v-.95h.56Zm-.56-1.45h-3.49v1h3.49Z" transform="translate(0.05)"/><path class="cls-3" d="M172.71,503.12c.68,0,1.37-.08,2-.16l0,.43a30.1,30.1,0,0,1-4.52.28l-.07-.5,2,0v-1.46H170.7v-2.92h3.51v.49h-3v1.95h3v.48h-1.53Zm3-5v7.16h-.56v-7.16Z" transform="translate(0.05)"/><path class="cls-3" d="M182.93,498.08v7.16h-.57v-3.92h-1.57c-.06,1.4-.75,2.29-1.71,2.29s-1.72-1-1.72-2.49.71-2.47,1.72-2.47,1.62.84,1.71,2.18h1.57v-2.75Zm-2.67,3c0-1.17-.49-1.95-1.18-1.95s-1.18.78-1.18,1.95.48,2,1.18,2S180.26,502.31,180.26,501.12Z" transform="translate(0.05)"/><path class="cls-3" d="M184.5,500.17a1.81,1.81,0,1,1,1.8,1.66A1.66,1.66,0,0,1,184.5,500.17Zm4.72,2.73a2,2,0,0,0,1.43,1.79l-.29.44a2.4,2.4,0,0,1-1.42-1.37,2.38,2.38,0,0,1-1.29,1.43,2.25,2.25,0,0,1-1.29-1.4,2.51,2.51,0,0,1-1.39,1.34l-.28-.44a2.07,2.07,0,0,0,1.41-1.79v-.41h.55v.41a2,2,0,0,0,1,1.73,2.2,2.2,0,0,0,1-1.73v-.41h.55Zm-4.17-2.73A1.25,1.25,0,1,0,186.3,499,1.17,1.17,0,0,0,185.05,500.17Zm5,2h-.57v-4.08H190Z" transform="translate(0.05)"/><path class="cls-3" d="M192.3,503a15.73,15.73,0,0,0,3.21-.25l.06.5a16.66,16.66,0,0,1-3.3.25h-.54v-4.68H195v.49H192.3Zm5.62-1.53h-1.17v3.82h-.57v-7.16h.57v2.85h1.17Z" transform="translate(0.05)"/><path class="cls-3" d="M198.68,504.24a.48.48,0,1,1,.95,0,.48.48,0,1,1-.95,0Z" transform="translate(0.05)"/><path class="cls-3" d="M55.22,515.12c0,1.51-.73,2.49-1.75,2.49s-1.76-1-1.76-2.49.73-2.47,1.76-2.47S55.22,513.61,55.22,515.12Zm-3,0c0,1.19.5,2,1.21,2s1.21-.78,1.21-2-.5-2-1.21-2S52.26,514,52.26,515.12Zm4.86-3v7.16h-.57v-7.16Z" transform="translate(0.05)"/><path class="cls-3" d="M62.13,512.79v4.62H59v-4.62Zm-2.62.48v3.67h2.06v-3.67Zm4.71-1.19v7.16h-.57v-7.16Z" transform="translate(0.05)"/><path class="cls-3" d="M68.09,514.31a3.41,3.41,0,0,0,1.89,2.9l-.32.46a3.82,3.82,0,0,1-1.85-2.21A4.14,4.14,0,0,1,66,517.85l-.33-.46a3.77,3.77,0,0,0,1.86-3.08v-1H65.88v-.49h3.88v.49H68.09Zm3.23-2.22v7.14h-.57v-7.14Z" transform="translate(0.05)"/><path class="cls-3" d="M79.05,515.42v.46h-6.3v-.46Zm-5,3.28h4.39v.43h-5v-1.56H77.7v-.65H73.51v-.42h4.75V518H74.09Zm3.58-6H73.55v-.43h4.68v1.46h-4.1v.65h4.23v.43H73.57v-1.49h4.1Z" transform="translate(0.05)"/><path class="cls-3" d="M85.33,516.22a3,3,0,0,1-1.69-1.64,3.07,3.07,0,0,1-1.76,1.82l-.31-.47a2.62,2.62,0,0,0,1.77-2.36v-.4H81.76v-.49h3.71v.49H83.91v.39a2.49,2.49,0,0,0,1.71,2.2Zm2.12,2.37v.48H82.83v-2.2h.57v1.72Zm-.77-4.51v-2h.56v5.25h-.56v-2.78H85.23v-.48Z" transform="translate(0.05)"/><path class="cls-3" d="M92.75,515.15a14.51,14.51,0,0,1-3.25.26H89v-2.92H92V513h-2.5v1.95a14.29,14.29,0,0,0,3.15-.24Zm-2.53,3.5h4.06v.48H89.66v-1.8h3.81v-.79H89.64v-.48H94v1.73h-3.8Zm4.84-5v.49H94v1.58h-.57v-3.6H94v1.53Z" transform="translate(0.05)"/><path class="cls-3" d="M98.07,513.24h1.74v.48H95.7v-.48h1.8v-1.08h.57Zm1.4,2.74a1.68,1.68,0,1,1-1.68-1.63A1.58,1.58,0,0,1,99.47,516Zm-.53,0a1.15,1.15,0,1,0-1.15,1.14A1.11,1.11,0,0,0,98.94,516Zm3.29-.44h-1.17v3.69h-.56v-7.15h.56v3h1.17Z" transform="translate(0.05)"/><path class="cls-3" d="M109.13,515.74v.49h-6.29v-.49Zm-4.9,2.83h4.22v.49h-4.79V517h.57Zm4.17-3.82h-4.7v-2.41h.56v1.93h4.14Z" transform="translate(0.05)"/><path class="cls-3" d="M115.28,512.85a5.39,5.39,0,0,1-3.24,5l-.3-.48a4.78,4.78,0,0,0,3-4.07h-2.65v-.48Zm2-.77v7.15h-.57v-7.15Z" transform="translate(0.05)"/><path class="cls-3" d="M125,515.46v.48h-6.28v-.48Zm-.77,2.45c0,.82-.89,1.29-2.38,1.29s-2.37-.47-2.37-1.29.89-1.3,2.37-1.3S124.25,517.08,124.25,517.91Zm0-3.32h-4.7v-2.36h.56v1.88h4.14Zm-.62,3.32c0-.53-.68-.83-1.81-.83s-1.8.3-1.8.83.69.83,1.8.83S123.68,518.43,123.68,517.91Z" transform="translate(0.05)"/><path class="cls-3" d="M132.12,515.2v.48h-6.28v-.48Zm-5.58-1.75c0-.8.91-1.24,2.43-1.24s2.43.44,2.43,1.24-.9,1.24-2.43,1.24S126.54,514.24,126.54,513.45Zm.64,5.22h4.33v.48h-4.88v-1.68h4.11v-.69H126.6v-.45h4.7v1.57h-4.12Zm-.05-5.22c0,.51.68.79,1.84.79s1.85-.28,1.85-.79-.69-.8-1.85-.8S127.13,513,127.13,513.45Z" transform="translate(0.05)"/><path class="cls-3" d="M137,513.24h1.75v.48h-4.11v-.48h1.79v-1.08H137Zm1.41,2.74a1.68,1.68,0,1,1-1.69-1.63A1.59,1.59,0,0,1,138.36,516Zm-.54,0a1.14,1.14,0,1,0-1.15,1.14A1.11,1.11,0,0,0,137.82,516Zm3.29-.44H140v3.69h-.57v-7.15H140v3h1.16Z" transform="translate(0.05)"/><path class="cls-3" d="M148,517.78v.49h-6.3v-.49Zm-.79-5.06v3.36h-4.75v-3.36Zm-4.21.47v2.42h3.67v-2.42Z" transform="translate(0.05)"/><path class="cls-3" d="M155.13,517.84v.49h-6.3v-.49h2.86v-1.39h-2.06v-2.17h4.15v-1.17h-4.17v-.49h4.72v2.13h-4.14V516h4.3v.48h-2.24v1.39Z" transform="translate(0.05)"/><path class="cls-3" d="M159.57,515.5a1.59,1.59,0,1,1,1.79-1.58A1.63,1.63,0,0,1,159.57,515.5Zm0-.48a1.1,1.1,0,1,0-1.23-1.1A1.14,1.14,0,0,0,159.57,515Zm4,3.64v.47h-4.7v-1.76h3.9v-.77h-3.92v-.48h4.48v1.69h-3.9v.85Zm-.24-2.9h-.57v-3.68h.57Z" transform="translate(0.05)"/><path class="cls-3" d="M169.09,516a26.86,26.86,0,0,1-4.34.29l-.06-.49h1.51v-1.57h.56v1.54c.77,0,1.56-.09,2.29-.19Zm-1.3-.94a9.62,9.62,0,0,0,.19-1.94h-2.87v-.49h3.42V513a10.71,10.71,0,0,1-.18,2.13Zm-1.47,3.52h4v.48h-4.57V517h.57Zm4.81-4.15v.48h-1v2.55h-.56v-5.39h.56v2.36Z" transform="translate(0.05)"/><path class="cls-3" d="M176.38,516.24a31.61,31.61,0,0,1-4.44.27l-.09-.49,2,0v-1.07h-1.37v-2.37h3.29V513h-2.72v1.4h2.77v.48h-1.4v1c.66,0,1.31-.07,1.91-.15Zm1.34,2.35v.48H173v-2h.57v1.51Zm-.23-1.16h-.57v-5.34h.57Z" transform="translate(0.05)"/><path class="cls-3" d="M54.61,530a2.63,2.63,0,0,1-1.39-1.47,2.86,2.86,0,0,1-1.44,1.65l-.3-.46a2.55,2.55,0,0,0,1.46-2.19v-1h.54v1a2.25,2.25,0,0,0,1.44,2Zm-2,.85H57.3v2.42h-.57v-1.94H52.66Zm4.64-4.72v4.31h-.55v-1.94h-1v1.9h-.54v-4.15h.54V528h1v-1.88Z" transform="translate(0.05)"/><path class="cls-3" d="M62.25,530a3,3,0,0,1-1.68-1.67,3,3,0,0,1-1.74,1.87l-.3-.47a2.67,2.67,0,0,0,1.74-2.48v-.75h.57v.79a2.51,2.51,0,0,0,1.71,2.24Zm1.74,2c0,.82-.85,1.29-2.26,1.29s-2.28-.47-2.28-1.29.86-1.29,2.28-1.29S64,531.12,64,531.93Zm-.55,0c0-.51-.66-.81-1.71-.81s-1.72.3-1.72.81.66.82,1.72.82S63.44,532.45,63.44,531.93ZM65,528v.49h-1v2h-.56v-4.35h.56V528Z" transform="translate(0.05)"/><path class="cls-3" d="M69.42,529.12c0,1.51-.73,2.49-1.75,2.49s-1.76-1-1.76-2.49.73-2.47,1.76-2.47S69.42,527.61,69.42,529.12Zm-3,0c0,1.19.5,2,1.21,2s1.21-.78,1.21-2-.5-2-1.21-2S66.46,528,66.46,529.12Zm4.86-3v7.16h-.57v-7.16Z" transform="translate(0.05)"/><path class="cls-3" d="M76.33,526.79v4.62H73.16v-4.62Zm-2.62.48v3.67h2.06v-3.67Zm4.71-1.19v7.16h-.57v-7.16Z" transform="translate(0.05)"/><path class="cls-3" d="M82.29,528.31a3.41,3.41,0,0,0,1.89,2.9l-.32.46A3.82,3.82,0,0,1,82,529.46a4.14,4.14,0,0,1-1.81,2.39l-.33-.46a3.77,3.77,0,0,0,1.86-3.08v-1H80.08v-.49H84v.49H82.29Zm3.23-2.22v7.14H85v-7.14Z" transform="translate(0.05)"/><path class="cls-3" d="M93.25,529.42v.46H87v-.46Zm-5,3.28h4.39v.43h-5v-1.56H91.9v-.65H87.71v-.42h4.75V532H88.29Zm3.59-6H87.75v-.43h4.68v1.46h-4.1v.65h4.23v.43H87.77v-1.49h4.11Z" transform="translate(0.05)"/><path class="cls-3" d="M98,528a3.67,3.67,0,0,0,1.8,3.05l-.35.46a4,4,0,0,1-1.73-2.28A4.06,4.06,0,0,1,96,531.7l-.35-.47A3.87,3.87,0,0,0,97.48,528v-1.32H98Zm4.2,1.46h-1.17v3.73h-.56v-7.14h.56V529h1.17Z" transform="translate(0.05)"/><path class="cls-3" d="M109.12,529.64v.48h-6.27v-.48h1.56v-1a1.17,1.17,0,0,1-.86-1.08c0-.82.93-1.32,2.43-1.32s2.42.5,2.42,1.32a1.15,1.15,0,0,1-.84,1.07v1Zm-.76,2.31c0,.81-.9,1.28-2.38,1.28s-2.37-.47-2.37-1.28.89-1.26,2.37-1.26S108.36,531.15,108.36,532ZM106,528.4c1.13,0,1.85-.32,1.85-.87s-.72-.85-1.85-.85-1.85.32-1.85.85S104.85,528.4,106,528.4Zm1.8,3.55c0-.51-.68-.79-1.8-.79s-1.8.28-1.8.79.68.81,1.8.81S107.78,532.47,107.78,532Zm-2.8-2.31h2v-.87a5.2,5.2,0,0,1-1,.09,5.09,5.09,0,0,1-1-.09Z" transform="translate(0.05)"/><path class="cls-3" d="M112.27,527.24H114v.48H109.9v-.48h1.8v-1.08h.57Zm1.4,2.74a1.68,1.68,0,1,1-1.68-1.63A1.58,1.58,0,0,1,113.67,530Zm-.53,0a1.15,1.15,0,1,0-1.15,1.14A1.11,1.11,0,0,0,113.14,530Zm3.29-.44h-1.17v3.69h-.56v-7.15h.56v3h1.17Z" transform="translate(0.05)"/><path class="cls-3" d="M123.34,529.74v.49H117v-.49Zm-4.91,2.83h4.22v.49h-4.79V531h.57Zm4.17-3.82h-4.7v-2.41h.57v1.93h4.13Z" transform="translate(0.05)"/><path class="cls-3" d="M129.39,526.65c0,1.83-1.21,3.15-3.18,3.81L126,530c1.65-.54,2.7-1.55,2.83-2.87h-2.5v-.48Zm.21,4c0,1.07,1.14,1.86,2.32,2.09l-.23.45a3.29,3.29,0,0,1-2.38-1.64,3.33,3.33,0,0,1-2.39,1.66l-.24-.46c1.19-.22,2.35-1,2.35-2.1v-.34h.57Zm1.37-2h-1.55v-.48H131v-2h.57V531H131Z" transform="translate(0.05)"/><path class="cls-3" d="M136.71,529.12c0,1.51-.73,2.49-1.75,2.49s-1.76-1-1.76-2.49.73-2.47,1.76-2.47S136.71,527.61,136.71,529.12Zm-3,0c0,1.19.51,2,1.22,2s1.21-.78,1.21-2-.51-2-1.21-2S133.74,528,133.74,529.12Zm4.87-3v7.16H138v-7.16Z" transform="translate(0.05)"/><path class="cls-3" d="M145.15,529.92v.8c1.32.06,2.09.5,2.09,1.25s-.88,1.25-2.37,1.25-2.37-.46-2.37-1.25.77-1.19,2.09-1.25v-.8h-2.85v-.48H148v.48Zm-3.05-1.4c1.19-.14,2.39-.78,2.41-1.63h-2.2v-.48h5.13v.48h-2.21c0,.85,1.23,1.49,2.42,1.63l-.21.46a3.29,3.29,0,0,1-2.57-1.48A3.29,3.29,0,0,1,142.3,529Zm2.77,2.66c-1.12,0-1.81.29-1.81.79s.69.79,1.81.79,1.8-.29,1.8-.79S146,531.18,144.87,531.18Z" transform="translate(0.05)"/><path class="cls-3" d="M155.14,531.81v.49h-6.32v-.49h1.58v-2a1.63,1.63,0,0,1-1-1.47c0-1.11,1.05-1.83,2.52-1.83s2.51.72,2.51,1.83a1.63,1.63,0,0,1-.94,1.47v2ZM152,529.73c1.14,0,2-.54,2-1.35s-.83-1.36-2-1.36-2,.54-2,1.36S150.83,529.73,152,529.73Zm-1,2.08h2v-1.73a4,4,0,0,1-1,.12,4.05,4.05,0,0,1-1-.12Z" transform="translate(0.05)"/><path class="cls-3" d="M158.25,527.24H160v.48h-4.11v-.48h1.79v-1.08h.57Zm1.41,2.74a1.68,1.68,0,1,1-1.69-1.63A1.59,1.59,0,0,1,159.66,530Zm-.54,0a1.14,1.14,0,1,0-1.15,1.14A1.11,1.11,0,0,0,159.12,530Zm3.29-.44h-1.16v3.69h-.57v-7.15h.57v3h1.16Z" transform="translate(0.05)"/><path class="cls-3" d="M163.9,531a15.79,15.79,0,0,0,3.21-.25l.06.5a16.66,16.66,0,0,1-3.3.25h-.54v-4.68h3.23v.49H163.9Zm5.62-1.53h-1.17v3.82h-.57v-7.16h.57v2.85h1.17Z" transform="translate(0.05)"/><path class="cls-3" d="M170.28,532.24a.48.48,0,1,1,.95,0,.48.48,0,1,1-.95,0Z" transform="translate(0.05)"/><path class="cls-2" d="M60.86,71.16c0,3.09-1.74,5.33-4.59,5.33s-4.6-2.24-4.6-5.33,1.75-5.32,4.6-5.32S60.86,68.07,60.86,71.16Zm-2.36,0c0-1.77-.77-3.12-2.24-3.12S54,69.39,54,71.16s.77,3.12,2.26,3.12S58.5,72.93,58.5,71.16Z" transform="translate(0.05)"/><path class="cls-2" d="M68.38,76.26H61.23V74.21H63.7V68.73l-2.32.68V67.22l3.23-1.16h1.45v8.15h2.32Z" transform="translate(0.05)"/><path class="cls-2" d="M68.48,75.21a1.33,1.33,0,1,1,1.32,1.32A1.3,1.3,0,0,1,68.48,75.21Z" transform="translate(0.05)"/><path class="cls-2" d="M83.17,68.82h-1a2.48,2.48,0,0,0-2.77-2c-1.5,0-2.49.75-2.49,1.93,0,.93.71,1.5,2,1.74l1.5.3c1.76.35,2.75,1.2,2.75,2.66,0,1.86-1.47,3.09-3.68,3.09-2.37,0-3.89-1.28-4.12-3.48h1a2.85,2.85,0,0,0,3.14,2.52c1.59,0,2.6-.8,2.6-2,0-.86-.59-1.5-1.87-1.74l-1.72-.35c-1.81-.34-2.73-1.29-2.73-2.67,0-1.75,1.41-2.92,3.51-2.92S82.93,66.81,83.17,68.82Z" transform="translate(0.05)"/><path class="cls-2" d="M86.11,76.26h-1V66.06h1Z" transform="translate(0.05)"/><path class="cls-2" d="M98,71.16v5.1h-.84L97,74.09a4.06,4.06,0,0,1-3.84,2.38,5.14,5.14,0,0,1-5.11-5.25,5.21,5.21,0,0,1,5.18-5.37A4.69,4.69,0,0,1,98,69.42H96.85a3.6,3.6,0,0,0-3.56-2.55,4.17,4.17,0,0,0-4.15,4.35,4.08,4.08,0,0,0,4.06,4.22,3.72,3.72,0,0,0,3.7-3.54H93.11v-1H98l0,.24Z" transform="translate(0.05)"/><path class="cls-2" d="M108.94,76.26h-.89L101.59,68v8.28h-1V66.06h.86l6.49,8.37V66.06h1Z" transform="translate(0.05)"/><path class="cls-2" d="M112.81,73.29l-1.28,3h-1.11L114.92,66h1l4.49,10.27h-1.1l-1.28-3Zm2.59-6-2.17,5.06h4.35Z" transform="translate(0.05)"/><path class="cls-2" d="M124.33,67v9.22h-1V67h-3.68v-1H128v1Z" transform="translate(0.05)"/><path class="cls-2" d="M137.53,71.93c0,2.68-1.69,4.56-4.22,4.56s-4.21-1.88-4.21-4.56V66.06h1v5.87c0,2,1.26,3.57,3.17,3.57a3.26,3.26,0,0,0,3.19-3.57V66.06h1Z" transform="translate(0.05)"/><path class="cls-2" d="M140.83,72.56v3.7h-1V66.06h3.68c2.23,0,3.77,1.25,3.77,3.26a3.13,3.13,0,0,1-2.73,3.15l3.17,3.79h-1.3l-3.1-3.7Zm2.62-1c1.62,0,2.77-.85,2.77-2.26S145.07,67,143.45,67h-2.62v4.54Z" transform="translate(0.05)"/><path class="cls-2" d="M150.13,70.7h5.26v1h-5.26v3.6H156v1H149.1V66.06H156v1h-5.84Z" transform="translate(0.05)"/><path class="cls-2" d="M54.38,84.83a4,4,0,0,0,2,3.57l-.52.74a4.06,4.06,0,0,1-2-2.44,4.18,4.18,0,0,1-2,2.62l-.53-.78a4.11,4.11,0,0,0,2.07-3.71V83.5h.9Zm3.58-2V91h-.91V82.82Z" transform="translate(0.05)"/><path class="cls-2" d="M66.2,89.06v.76H59.07v-.76Zm-1.81-4.68H59.83v-.74h5.45v.87A21.23,21.23,0,0,1,65,88.46l-.91-.1a18.59,18.59,0,0,0,.31-3.85Z" transform="translate(0.05)"/><path class="cls-2" d="M68,88.11a17.81,17.81,0,0,0,3.53-.37l.1.78a18.8,18.8,0,0,1-3.85.38h-.67V83.62H68Zm5.16-5.28V91h-.9V82.83Z" transform="translate(0.05)"/><path class="cls-2" d="M77.08,85.41a3.57,3.57,0,0,0,2,3.16l-.48.71A3.83,3.83,0,0,1,76.64,87a3.89,3.89,0,0,1-1.9,2.39l-.5-.72a3.69,3.69,0,0,0,2-3.29v-.47h-1.7v-.75h1.69V83h.91v1.2h1.66v.75H77.08Zm3.72-2.6V91h-.9V86.78H78.34V86H79.9V82.81Z" transform="translate(0.05)"/><path class="cls-2" d="M90.52,89.2V90H83.38V89.2H86.5V87.3h.91v1.9Zm-6.83-2.32c1.54-.26,2.78-1.38,2.78-2.61H84v-.75h6v.75h-2.5c0,1.23,1.25,2.33,2.82,2.58l-.37.74a4.09,4.09,0,0,1-2.93-2,4,4,0,0,1-2.88,2.07Z" transform="translate(0.05)"/><path class="cls-2" d="M95.64,84.35H91V83.6h1.87v-.85h.9v.85h1.88Zm-2.33,3.17c-1.14,0-1.91-.58-1.91-1.44s.77-1.44,1.91-1.44,1.91.58,1.91,1.44S94.45,87.52,93.31,87.52Zm2.93.38h.89v3h-5v-3H93v.75h3.25Zm-2.93-1.08c.63,0,1.06-.28,1.06-.74s-.43-.74-1.06-.74-1,.28-1,.74S92.68,86.82,93.31,86.82Zm2.93,2.55H93v.75h3.25Zm2-3.75H97.13v1.95h-.9V82.83h.9v2h1.12Z" transform="translate(0.05)"/><path class="cls-3" d="M57.75,120.93v.49h-6.3v-.49h2.86v-1.39H52.25v-2.17H56.4V116.2H52.23v-.49H57v2.13H52.81v1.22h4.3v.48H54.87v1.39Z" transform="translate(0.05)"/><path class="cls-3" d="M64.83,120.81v.48H58.56v-.48H61v-2.58h.57v2.58Zm-1.34-4.41H59.23v-.49h4.83v.72a16.49,16.49,0,0,1-.26,3.28l-.57-.08a15.52,15.52,0,0,0,.26-3.2Z" transform="translate(0.05)"/><path class="cls-3" d="M71.94,118.83v.49h-6.3v-.49ZM67,121.66h4.23v.49h-4.8v-2.09H67Zm4.18-3.82H66.5v-2.41h.57v1.93h4.14Z" transform="translate(0.05)"/><path class="cls-3" d="M75.26,120.05a10.49,10.49,0,0,0,2.43-.22l0,.48a11.22,11.22,0,0,1-2.59.22H74.7v-4.48h2.59v.49h-2Zm5.06-4.87v7.15h-.54v-3.79h-1V122H78.2v-6.62h.54v2.72h1v-2.88Z" transform="translate(0.05)"/><path class="cls-3" d="M87.84,121v.49h-6.3V121h1.79v-1.77H82.12v-.48h1.09v-2.37h-1.1v-.49h5.12v.49h-1.1v2.37h1.1v.48H86V121Zm-4.06-2.25h1.78v-2.37H83.78Zm.11,2.25h1.57v-1.77H83.89Z" transform="translate(0.05)"/><path class="cls-3" d="M92.42,118.22c0,1.51-.73,2.48-1.76,2.48s-1.75-1-1.75-2.48.73-2.48,1.75-2.48S92.42,116.71,92.42,118.22Zm-3,0c0,1.18.5,2,1.21,2s1.21-.78,1.21-2-.5-2-1.21-2S89.45,117,89.45,118.22Zm4.86-3v7.16h-.57v-7.16Z" transform="translate(0.05)"/><path class="cls-3" d="M99.32,115.88v4.62H96.15v-4.62Zm-2.61.48V120h2.05v-3.67Zm4.7-1.19v7.16h-.56v-7.16Z" transform="translate(0.05)"/><path class="cls-3" d="M105.28,117.4a3.41,3.41,0,0,0,1.89,2.9l-.32.47a3.87,3.87,0,0,1-1.85-2.22,4.11,4.11,0,0,1-1.81,2.39l-.33-.46a3.77,3.77,0,0,0,1.86-3.08v-1h-1.64v-.49H107v.49h-1.67Zm3.23-2.22v7.14H108v-7.14Z" transform="translate(0.05)"/><path class="cls-3" d="M116.24,118.51V119h-6.3v-.46Zm-5,3.28h4.4v.43h-5v-1.56h4.17V120H110.7v-.43h4.75v1.49h-4.17Zm3.59-6h-4.13v-.43h4.69v1.46h-4.11v.65h4.23v.44h-4.79v-1.5h4.11Z" transform="translate(0.05)"/><path class="cls-3" d="M122.43,119a3,3,0,0,1-1.68-1.67,3,3,0,0,1-1.73,1.87l-.3-.47a2.66,2.66,0,0,0,1.74-2.48v-.75H121v.79a2.53,2.53,0,0,0,1.71,2.25Zm1.75,2c0,.82-.85,1.29-2.27,1.29s-2.27-.47-2.27-1.29.86-1.28,2.27-1.28S124.18,120.21,124.18,121Zm-.56,0c0-.51-.65-.81-1.71-.81s-1.71.3-1.71.81.66.83,1.71.83S123.62,121.54,123.62,121Zm1.53-4v.48h-1v2h-.57v-4.35h.57v1.88Z" transform="translate(0.05)"/><path class="cls-3" d="M129.79,119.14A3,3,0,0,1,128,117.5a3.08,3.08,0,0,1-1.77,1.83l-.3-.47a2.6,2.6,0,0,0,1.77-2.36v-.27h-1.63v-.48h3.82v.48H128.3v.27a2.45,2.45,0,0,0,1.78,2.18Zm1.75,1.87c0,.85-.88,1.35-2.32,1.35s-2.32-.5-2.32-1.35.88-1.34,2.32-1.34S131.54,120.17,131.54,121Zm-.57,0c0-.55-.67-.87-1.75-.87s-1.76.32-1.76.87.68.88,1.76.88S131,121.57,131,121Zm.55-1.51H131v-4.32h.57Z" transform="translate(0.05)"/><path class="cls-3" d="M135.26,116.33H137v.48H132.9v-.48h1.79v-1.08h.57Zm1.4,2.74a1.68,1.68,0,1,1-1.68-1.63A1.58,1.58,0,0,1,136.66,119.07Zm-.53,0a1.15,1.15,0,1,0-1.15,1.14A1.11,1.11,0,0,0,136.13,119.07Zm3.29-.44h-1.16v3.7h-.57v-7.16h.57v3h1.16Z" transform="translate(0.05)"/><path class="cls-3" d="M146.33,118.83v.49H140v-.49Zm-4.91,2.83h4.22v.49h-4.79v-2.09h.57Zm4.18-3.82h-4.71v-2.41h.57v1.93h4.14Z" transform="translate(0.05)"/><path class="cls-3" d="M155.13,120.93v.49h-6.3v-.49h2.85v-1.69h-2.27v-.49h1.09v-2.39h-1.1v-.49h5.12v.49h-1.1v2.39h1.09v.49h-2.26v1.69Zm-4.06-2.18h1.78v-2.39h-1.78Z" transform="translate(0.05)"/><path class="cls-3" d="M160.31,118.54a27.9,27.9,0,0,1-4.34.28l-.07-.48c.46,0,1,0,1.5,0V117H158v1.3c.77,0,1.58-.08,2.31-.18Zm-1.3-.85a7.62,7.62,0,0,0,.17-1.63h-2.86v-.48h3.42v.33a7.85,7.85,0,0,1-.18,1.83Zm-1.63,4.09h4.2v.47h-4.76v-1.72h3.92v-.71h-3.93v-.47h4.49V121h-3.92Zm5-4.88v.49h-1V119h-.56v-3.86h.56v1.73Z" transform="translate(0.05)"/><path class="cls-3" d="M166.82,119.16a2.94,2.94,0,0,1-1.69-1.64,3.09,3.09,0,0,1-1.77,1.82l-.3-.47a2.62,2.62,0,0,0,1.77-2.36v-.34h-1.58v-.49H167v.49H165.4v.34a2.48,2.48,0,0,0,1.71,2.19Zm-2.71.69h4.62v2.48h-.57v-2h-4Zm4.62-4.67v4.28h-.57v-1.91h-1.42v-.49h1.42v-1.88Z" transform="translate(0.05)"/><path class="cls-3" d="M173.9,118.22c0,1.51-.73,2.48-1.75,2.48s-1.76-1-1.76-2.48.73-2.48,1.76-2.48S173.9,116.71,173.9,118.22Zm-3,0c0,1.18.5,2,1.21,2s1.21-.78,1.21-2-.5-2-1.21-2S170.94,117,170.94,118.22Zm4.86-3v7.16h-.57v-7.16Z" transform="translate(0.05)"/><path class="cls-3" d="M183.51,120.81v.48h-6.27v-.48h2.48v-2.58h.56v2.58Zm-1.34-4.41h-4.26v-.49h4.83v.72a16.49,16.49,0,0,1-.26,3.28l-.57-.08a15.52,15.52,0,0,0,.26-3.2Z" transform="translate(0.05)"/><path class="cls-3" d="M55.41,132.94a3,3,0,0,1-1.79-1.62,3,3,0,0,1-1.78,1.74l-.29-.47a2.47,2.47,0,0,0,1.79-2.23v-.22H51.71v-.48h3.82v.48H53.91v.22a2.41,2.41,0,0,0,1.78,2.12Zm1.16.46h.56v2.83H52.68V133.4h.56v.89h3.33Zm0,1.37H53.24v1h3.33Zm.56-5.6v3.88h-.56v-3.88Z" transform="translate(0.05)"/><path class="cls-3" d="M60.49,133a1.68,1.68,0,1,1,1.8-1.68A1.67,1.67,0,0,1,60.49,133Zm0-.5a1.18,1.18,0,1,0,0-2.36,1.18,1.18,0,1,0,0,2.36Zm-1.06,1.31h4.49v2.55h-.56v-2.08H59.43Zm4.49-3v1h1v.48h-1v1.12h-.56v-4.24h.56v1.12h1v.48Z" transform="translate(0.05)"/><path class="cls-3" d="M69.44,133.16a2.94,2.94,0,0,1-1.69-1.64A3.09,3.09,0,0,1,66,133.34l-.3-.47a2.62,2.62,0,0,0,1.77-2.37v-.33H65.87v-.49h3.71v.49H68v.33a2.49,2.49,0,0,0,1.71,2.2Zm-2.71.69h4.62v2.48h-.57v-2h-4Zm4.62-4.67v4.28h-.57v-1.91H69.36v-.49h1.42v-1.88Z" transform="translate(0.05)"/><path class="cls-3" d="M74.71,133.18a1.75,1.75,0,1,1,1.81-1.75A1.71,1.71,0,0,1,74.71,133.18Zm0-.5a1.25,1.25,0,1,0-1.24-1.25A1.22,1.22,0,0,0,74.71,132.68Zm3.94,3v.49H74v-2.29h.56v1.8Zm-.21-1.26h-.57v-5.23h.57Z" transform="translate(0.05)"/><path class="cls-3" d="M84,131.14a3.63,3.63,0,0,0,1.87,3.09l-.34.46a4,4,0,0,1-1.81-2.31,4,4,0,0,1-1.82,2.44l-.35-.48a3.78,3.78,0,0,0,1.89-3.2v-1.33H84Zm3.24-2v7.16h-.57v-7.16Z" transform="translate(0.05)"/><path class="cls-3" d="M92.14,129.63c0,1.79-1.23,3.08-3.26,3.66l-.23-.47c1.71-.48,2.76-1.45,2.88-2.7H89v-.49Zm-2.61,4.08H94v2.62h-.57v-2.14H89.53Zm5.53-2.21H94v1.87h-.57v-4.2H94V131h1Z" transform="translate(0.05)"/><path class="cls-3" d="M99.16,132.7v.74h2V135H97.09v.76h4.33v.47H96.53v-1.67h4.12v-.68H96.5v-.45h2.1v-.74H95.74v-.48H102v.48Zm2-1.12H96.57v-2.17h4.63Zm-.55-1.7H97.12v1.22h3.53Z" transform="translate(0.05)"/><path class="cls-3" d="M109.14,134.93v.49h-6.3v-.49h2.86v-1.39h-2.06v-2.17h4.15V130.2h-4.16v-.49h4.71v2.13H104.2v1.22h4.3v.48h-2.23v1.39Z" transform="translate(0.05)"/><path class="cls-3" d="M112.34,131.13a3.63,3.63,0,0,0,1.81,3.08l-.33.47a3.93,3.93,0,0,1-1.76-2.32,4.12,4.12,0,0,1-1.74,2.45l-.36-.47a3.87,3.87,0,0,0,1.82-3.21V129.8h.56Zm3.3-2v7.16h-.56v-4.21h-1.67v-.49h1.67v-2.46Z" transform="translate(0.05)"/><path class="cls-3" d="M118.77,132.82c0-1.88,1.06-3,2.5-3a2,2,0,0,1,1.54.71l-.35.43a1.54,1.54,0,0,0-1.19-.56c-1.11,0-1.84.93-1.84,2.43s.7,2.46,1.82,2.46a1.73,1.73,0,0,0,1.35-.67l.35.42a2.14,2.14,0,0,1-1.73.84C119.81,135.85,118.77,134.71,118.77,132.82Z" transform="translate(0.05)"/><path class="cls-3" d="M123.76,135.33a.48.48,0,1,1,1,0,.48.48,0,1,1-1,0Z" transform="translate(0.05)"/><path class="cls-3" d="M126.05,129.89h.64v5.85h-.64Z" transform="translate(0.05)"/><path class="cls-3" d="M128,135.33a.48.48,0,1,1,.47.52A.49.49,0,0,1,128,135.33Z" transform="translate(0.05)"/><path class="cls-3" d="M136.22,135v.49h-6.3V135h1.78v-1.77h-1.2v-.48h1.09v-2.37h-1.11v-.49h5.13v.49h-1.1v2.37h1.1v.48H134.4V135Zm-4.07-2.25h1.79v-2.37h-1.79Zm.11,2.25h1.57v-1.77h-1.57Z" transform="translate(0.05)"/><path class="cls-3" d="M143.31,132.87v.48h-2.83v1.5h-.57v-1.5H137v-.48Zm-5.9-1c1.18-.17,2.39-.87,2.39-1.78v0h-2.21v-.48h5.14V130h-2.21v0c0,.9,1.2,1.61,2.38,1.78l-.22.47a3.29,3.29,0,0,1-2.52-1.6,3.29,3.29,0,0,1-2.53,1.6Zm1,3.83h4.23v.49h-4.79v-2h.56Z" transform="translate(0.05)"/><path class="cls-3" d="M146.53,134.39a16.72,16.72,0,0,0,1.91-.18l0,.44a25.11,25.11,0,0,1-4.35.28l-.09-.49c.57,0,1.23,0,1.92,0v-.81a1.34,1.34,0,0,1-1.34-1.3c0-.8.66-1.33,1.62-1.33s1.63.53,1.63,1.33a1.34,1.34,0,0,1-1.34,1.3Zm1.79-3.85h-4.16v-.48H146v-.88h.57v.88h1.79Zm-2.08,2.61c.66,0,1.09-.34,1.09-.85s-.43-.87-1.09-.87-1.09.35-1.09.87S145.59,133.15,146.24,133.15Zm4.32-.42h-1.12v3.6h-.57v-7.15h.57v3.06h1.12Z" transform="translate(0.05)"/><path class="cls-3" d="M155.33,131.14a3.64,3.64,0,0,0,1.88,3.09l-.34.46a4,4,0,0,1-1.82-2.31,4,4,0,0,1-1.81,2.44l-.35-.48a3.77,3.77,0,0,0,1.88-3.2v-1.33h.56Zm3.25-2v7.16H158v-7.16Z" transform="translate(0.05)"/><path class="cls-3" d="M166.32,134.85v.49H160v-.49Zm-.59-1.56a4,4,0,0,1-2.6-2.1,3.85,3.85,0,0,1-2.58,2.1l-.25-.49c1.14-.23,2.54-1.32,2.54-2.57v-.55h.6v.55c0,1.25,1.39,2.34,2.54,2.57Z" transform="translate(0.05)"/><path class="cls-3" d="M170.44,132.82a11.25,11.25,0,0,1-2.56.2h-.44v-3.38h2.62v.48H168v.94h1.8v.47H168v1a10.64,10.64,0,0,0,2.41-.2Zm-2,1H173v2.39h-4.54Zm.55,1.91h3.44V134.3H169Zm2.11-4.28h-1V131h1V129.3h.54v4.12h-.54Zm1.88-2.29v4.31h-.54v-4.31Z" transform="translate(0.05)"/><path class="cls-3" d="M174.26,134.25a29.33,29.33,0,0,0,4.55-.25l.05.43a24.64,24.64,0,0,1-4.52.31Zm4.06-2.88a1.86,1.86,0,1,1-1.85-1.66A1.68,1.68,0,0,1,178.32,131.37Zm-3.15,0a1.31,1.31,0,0,0,2.6,0,1.31,1.31,0,0,0-2.6,0Zm4.67-2.2v7.16h-.56v-7.16Z" transform="translate(0.05)"/><path class="cls-3" d="M186.54,130a5.4,5.4,0,0,1-3.16,5l-.31-.46a4.92,4.92,0,0,0,2.91-4.06h-2.6V130Zm2.93,2.64h-1.15v3.73h-.56v-7.15h.56v2.93h1.15Z" transform="translate(0.05)"/><path class="cls-3" d="M193.84,133.13a2.85,2.85,0,0,1-1.7-1.59,3,3,0,0,1-1.76,1.8l-.28-.47a2.56,2.56,0,0,0,1.74-2.33v-.34h-1.57v-.49H194v.49h-1.57v.34a2.33,2.33,0,0,0,1.7,2.12Zm1.71,1.87c0,.83-.86,1.31-2.27,1.31S191,135.83,191,135s.87-1.3,2.28-1.3S195.55,134.18,195.55,135Zm-.56,0c0-.52-.66-.83-1.71-.83s-1.72.31-1.72.83.66.84,1.72.84S195,135.53,195,135Zm1.53-4v.48h-1v2h-.57v-4.32h.57V131Z" transform="translate(0.05)"/><path class="cls-3" d="M54.87,147v.8c1.32.05,2.09.49,2.09,1.24s-.88,1.25-2.37,1.25-2.37-.46-2.37-1.25.77-1.19,2.09-1.24V147H51.46v-.49h6.27V147Zm-3-1.41c1.19-.14,2.39-.78,2.41-1.62H52v-.48h5.13V144H55c0,.84,1.23,1.48,2.42,1.62l-.21.46a3.29,3.29,0,0,1-2.57-1.48A3.29,3.29,0,0,1,52,146.07Zm2.77,2.66c-1.12,0-1.81.29-1.81.79s.69.79,1.81.79,1.8-.29,1.8-.79S55.71,148.27,54.59,148.27Z" transform="translate(0.05)"/><path class="cls-3" d="M64.86,148.9v.49H58.54v-.49h1.58v-2a1.63,1.63,0,0,1-.95-1.47c0-1.11,1-1.83,2.52-1.83s2.51.72,2.51,1.83a1.63,1.63,0,0,1-.94,1.47v2Zm-3.17-2.08c1.14,0,2-.54,2-1.35s-.83-1.36-2-1.36-2,.55-2,1.36S60.55,146.82,61.69,146.82Zm-1,2.08h2v-1.73a4,4,0,0,1-1,.13,4.42,4.42,0,0,1-1-.12Z" transform="translate(0.05)"/><path class="cls-3" d="M69.78,144.55h-4.1v-.48h1.76v-.88H68v.88h1.77Zm-2.06,3.07c-1,0-1.65-.53-1.65-1.32s.67-1.34,1.65-1.34,1.66.53,1.66,1.34S68.71,147.62,67.72,147.62Zm0-.47c.66,0,1.12-.34,1.12-.85s-.46-.88-1.12-.88-1.12.36-1.12.88S67.06,147.15,67.72,147.15Zm-.42,2.53h4v.49H66.73v-2.06h.57Zm4.76-4.11v.49H71v2.48h-.56v-5.35H71v2.38Z" transform="translate(0.05)"/><path class="cls-3" d="M78,144.5H74.4V144h1.51v-.83h.56V144H78Zm-1.77,2.91a1.27,1.27,0,1,1,0-2.51c.88,0,1.47.5,1.47,1.24A1.31,1.31,0,0,1,76.19,147.41Zm0-.45a.82.82,0,1,0,0-1.62c-.58,0-1,.33-1,.8A.86.86,0,0,0,76.19,147Zm-.54,1.1h4.64v2.27h-.57v-1.79H75.65Zm4.64-4.88v4.44h-.54v-1.93h-.94v1.88h-.54V143.3h.54v1.9h.94v-2Z" transform="translate(0.05)"/><path class="cls-3" d="M85.45,146.91a3,3,0,0,1-1.77-1.71,3.1,3.1,0,0,1-1.78,1.85l-.29-.46a2.69,2.69,0,0,0,1.78-2.44v-.69H84v.69a2.53,2.53,0,0,0,1.79,2.3Zm-2.69.75h4.47v2.56H82.76Zm.55,2.08h3.37v-1.6H83.31Zm3.92-6.56v4.06h-.57v-4.06Z" transform="translate(0.05)"/><path class="cls-3" d="M95,148.9v.49H88.63v-.49h1.58v-2a1.63,1.63,0,0,1-.95-1.47c0-1.11,1-1.83,2.52-1.83s2.51.72,2.51,1.83a1.64,1.64,0,0,1-.93,1.47v2Zm-3.17-2.08c1.14,0,2-.54,2-1.35s-.83-1.36-2-1.36-2,.55-2,1.36S90.64,146.82,91.78,146.82Zm-1,2.08h2v-1.73a4.06,4.06,0,0,1-1,.13,4.42,4.42,0,0,1-1-.12Z" transform="translate(0.05)"/><path class="cls-3" d="M102.05,148.89v.49H95.74v-.49h2.85v-1.76h.56v1.76Zm-.57-1.7a3.88,3.88,0,0,1-2.62-2,3.78,3.78,0,0,1-2.6,2L96,146.7c1.16-.21,2.56-1.25,2.56-2.48v-.55h.6v.55c0,1.23,1.4,2.27,2.55,2.48Z" transform="translate(0.05)"/><path class="cls-3" d="M106.62,146.22c0,1.51-.73,2.48-1.76,2.48s-1.75-1-1.75-2.48.73-2.48,1.75-2.48S106.62,144.71,106.62,146.22Zm-3,0c0,1.18.51,2,1.21,2s1.21-.78,1.21-2-.5-2-1.21-2S103.65,145,103.65,146.22Zm4.86-3.05v7.16H108v-7.16Z" transform="translate(0.05)"/><path class="cls-3" d="M110.81,148a15.73,15.73,0,0,0,3.21-.25l.06.5a16.66,16.66,0,0,1-3.3.25h-.53v-4.67h3.22v.48h-2.66Zm5.62-1.53h-1.17v3.82h-.56v-7.16h.56V146h1.17Z" transform="translate(0.05)"/><path class="cls-3" d="M117.19,149.33a.48.48,0,1,1,1,0,.48.48,0,1,1-1,0Z" transform="translate(0.05)"/><path class="cls-3" d="M127.09,149v.49h-6.3V149h1.69v-1.35a1.17,1.17,0,0,1-.81-1.08c0-.83.87-1.34,2.26-1.34s2.25.51,2.25,1.34a1.16,1.16,0,0,1-.8,1.08V149Zm-.36-4.25h-5.62v-.49h2.54v-1h.57v1h2.51Zm-2.8,2.68c1,0,1.68-.33,1.68-.86s-.65-.87-1.68-.87-1.69.33-1.69.87S122.89,147.43,123.93,147.43ZM123,149h1.78v-1.18a5.76,5.76,0,0,1-.89.08,5.88,5.88,0,0,1-.89-.08Z" transform="translate(0.05)"/><path class="cls-3" d="M129.89,148.21c.77,0,1.57-.07,2.29-.17l0,.43a30.38,30.38,0,0,1-4.33.27l-.07-.49,1.51,0V146h.56Zm1.05-1.09a16.78,16.78,0,0,0,.21-2.67h-2.94V144h3.5v.36a17.44,17.44,0,0,1-.21,2.86Zm3.4-.44H133.2v3.65h-.57v-7.16h.57v3h1.14Z" transform="translate(0.05)"/><path class="cls-3" d="M138.78,147.16a3,3,0,0,1-1.69-1.64,3.1,3.1,0,0,1-1.76,1.82l-.31-.47a2.62,2.62,0,0,0,1.77-2.37v-.33h-1.58v-.49h3.71v.49h-1.56v.33a2.49,2.49,0,0,0,1.71,2.2Zm-2.71.69h4.62v2.48h-.56v-2h-4.06Zm4.62-4.67v4.28h-.56v-1.91h-1.42v-.49h1.42v-1.88Z" transform="translate(0.05)"/><path class="cls-3" d="M144.06,147.18a1.75,1.75,0,1,1,1.8-1.75A1.72,1.72,0,0,1,144.06,147.18Zm0-.5a1.25,1.25,0,1,0-1.25-1.25A1.21,1.21,0,0,0,144.06,146.68Zm3.94,3v.49h-4.66v-2.29h.56v1.8Zm-.22-1.26h-.57v-5.23h.57Z" transform="translate(0.05)"/><path class="cls-3" d="M154.38,143.93a5.42,5.42,0,0,1-3.15,5.2l-.33-.46a5.15,5.15,0,0,0,2.52-2.49l-2.4.24-.1-.52,2.67-.18a4.8,4.8,0,0,0,.23-1.31h-2.55v-.48Zm2.2-.75v7.15H156v-3.78h-1.65v-.49H156v-2.88Z" transform="translate(0.05)"/><path class="cls-3" d="M164.28,147.82h-1.63v2.56h-.56v-2.56h-1.91v2.56h-.56v-2.56H158v-.48h6.3Zm-.82-1.48h-4.67v-2.78h4.67Zm-.55-2.3h-3.57v1.82h3.57Z" transform="translate(0.05)"/><path class="cls-3" d="M166.1,148a15.84,15.84,0,0,0,3.34-.34l.06.5a15.62,15.62,0,0,1-3.4.34h-.56v-4.59h.56Zm4.65-4.78v7.14h-.56v-7.14Z" transform="translate(0.05)"/><path class="cls-3" d="M176.09,143.36h.54V150h-.54V146.5h-1.33a5,5,0,0,1-2.19,2.33l-.33-.42a4.46,4.46,0,0,0,2.09-2.26l-2,.22-.1-.51,2.26-.16a5.38,5.38,0,0,0,.2-1.2h-2.11V144h2.65a6.34,6.34,0,0,1-.28,2h1.15Zm2-.19v7.16h-.54v-7.16Z" transform="translate(0.05)"/><path class="cls-3" d="M183.06,146.22c0,1.51-.73,2.48-1.75,2.48s-1.76-1-1.76-2.48.73-2.48,1.76-2.48S183.06,144.71,183.06,146.22Zm-3,0c0,1.18.51,2,1.22,2s1.21-.78,1.21-2-.51-2-1.21-2S180.09,145,180.09,146.22Zm4.87-3.05v7.16h-.57v-7.16Z" transform="translate(0.05)"/><path class="cls-3" d="M190.11,147.42a3.2,3.2,0,0,1-1.67-1.81,3.08,3.08,0,0,1-1.73,1.93l-.3-.46a2.82,2.82,0,0,0,1.75-2.58v-.92h.56v.92a2.73,2.73,0,0,0,1.71,2.46Zm2.15,2.26v.49h-4.61V148h.56v1.7Zm-.74-3.46h-1.45v-.48h1.45v-1h-1.45v-.48h1.45v-1.07h.57v5.33h-.57Z" transform="translate(0.05)"/><path class="cls-3" d="M199.77,146.29v.48h-6.28v-.48Zm-5.58-1.75c0-.79.91-1.24,2.43-1.24s2.43.45,2.43,1.24-.9,1.24-2.43,1.24S194.19,145.34,194.19,144.54Zm.64,5.23h4.33v.47h-4.88v-1.68h4.12v-.69h-4.14v-.45H199V149h-4.12Zm-.05-5.23c0,.51.68.8,1.84.8s1.85-.29,1.85-.8-.69-.79-1.85-.79S194.78,144,194.78,144.54Z" transform="translate(0.05)"/><path class="cls-3" d="M56.09,161.26a17.89,17.89,0,0,1-2.05.24v2.6h-.56v-2.56c-.71,0-1.39,0-2,0l-.08-.5a31.35,31.35,0,0,0,4.61-.26ZM52,159c0-.87.73-1.46,1.76-1.46s1.76.59,1.76,1.46-.73,1.46-1.76,1.46S52,159.86,52,159Zm.54,0c0,.58.51,1,1.22,1s1.21-.39,1.21-1-.5-1-1.21-1S52.51,158.41,52.51,159Zm4.62-1.8v7.15h-.57v-7.15Z" transform="translate(0.05)"/><path class="cls-3" d="M62.68,158.55h-4.1v-.48h1.76v-.88h.57v.88h1.77Zm-2.06,3.07c-1,0-1.65-.53-1.65-1.32s.67-1.34,1.65-1.34,1.66.53,1.66,1.34S61.61,161.62,60.62,161.62Zm0-.47c.66,0,1.12-.34,1.12-.85s-.46-.88-1.12-.88-1.12.36-1.12.88S60,161.15,60.62,161.15Zm-.42,2.53h4v.49H59.63v-2.06h.57ZM65,159.57v.49h-1v2.48h-.56v-5.35h.56v2.38Z" transform="translate(0.05)"/><path class="cls-3" d="M70.77,161v.8c1.31.05,2.09.49,2.09,1.24s-.89,1.25-2.38,1.25-2.37-.46-2.37-1.25.78-1.19,2.09-1.24V161H67.35v-.49h6.27V161Zm-3.06-1.41c1.19-.14,2.4-.78,2.41-1.62h-2.2v-.48h5.14V158H70.84c0,.84,1.23,1.48,2.42,1.62l-.2.46a3.27,3.27,0,0,1-2.57-1.48,3.29,3.29,0,0,1-2.57,1.48Zm2.77,2.66c-1.12,0-1.8.29-1.8.79s.68.79,1.8.79,1.8-.29,1.8-.79S71.6,162.27,70.48,162.27Z" transform="translate(0.05)"/><path class="cls-3" d="M78.35,160.91a3,3,0,0,1-1.77-1.71,3.1,3.1,0,0,1-1.78,1.85l-.29-.46a2.69,2.69,0,0,0,1.78-2.44v-.69h.56v.69a2.53,2.53,0,0,0,1.79,2.3Zm-2.69.75h4.47v2.56H75.66Zm.55,2.08h3.37v-1.6H76.21Zm3.92-6.56v4.06h-.57v-4.06Z" transform="translate(0.05)"/><path class="cls-3" d="M85.33,161.16a3,3,0,0,1-1.69-1.64,3.1,3.1,0,0,1-1.76,1.82l-.31-.47a2.62,2.62,0,0,0,1.77-2.37v-.33H81.76v-.49h3.71v.49H83.91v.33a2.49,2.49,0,0,0,1.71,2.2Zm-2.71.69h4.62v2.48h-.56v-2H82.62Zm4.62-4.67v4.28h-.56v-1.91H85.25v-.49h1.43v-1.88Z" transform="translate(0.05)"/><path class="cls-3" d="M90.61,161.18a1.75,1.75,0,1,1,1.8-1.75A1.72,1.72,0,0,1,90.61,161.18Zm0-.5a1.25,1.25,0,1,0-1.25-1.25A1.21,1.21,0,0,0,90.61,160.68Zm3.93,3v.49H89.89v-2.29h.56v1.8Zm-.21-1.26h-.57v-5.23h.57Z" transform="translate(0.05)"/><path class="cls-3" d="M97.69,158h2.63v4.37H97.69Zm.54,3.9h1.56v-3.42H98.23Zm5.09-4.74v7.16h-.54v-3.82h-1V164h-.53v-6.64h.53V160h1v-2.85Z" transform="translate(0.05)"/><path class="cls-3" d="M106.53,159.38a3.36,3.36,0,0,0,1.52,2.86l-.32.44a3.41,3.41,0,0,1-1.46-2,3.66,3.66,0,0,1-1.44,2.2l-.33-.45a3.62,3.62,0,0,0,1.49-3V159h-1.32v-.49H106v-1.07h.55v1.07h1.31V159h-1.32Zm2-2H109v6.59h-.53V160.5h-1.12V160h1.12Zm1.92-.18v7.15h-.54v-7.15Z" transform="translate(0.05)"/><path class="cls-3" d="M115.41,160.22c0,1.51-.73,2.48-1.76,2.48s-1.75-1-1.75-2.48.73-2.48,1.75-2.48S115.41,158.71,115.41,160.22Zm-3,0c0,1.18.51,2,1.21,2s1.22-.78,1.22-2-.51-2-1.22-2S112.44,159,112.44,160.22Zm4.86-3.05v7.16h-.56v-7.16Z" transform="translate(0.05)"/><path class="cls-3" d="M125,162.87v.49h-6.29v-.49Zm-.78-5.06v3.37H119.5v-3.37Zm-4.21.47v2.42h3.67v-2.42Z" transform="translate(0.05)"/><path class="cls-3" d="M132.13,162.93v.49h-6.29v-.49h2.85v-1.39h-2v-2.17h4.14V158.2h-4.16v-.49h4.71v2.13h-4.14v1.22h4.31v.48h-2.24v1.39Z" transform="translate(0.05)"/><path class="cls-3" d="M140.91,161.1v.48h-6.28v-.48h2.86v-.79h-2v-2.85H136v.93h3.49v-.93h.56v2.85h-2v.79Zm-4.9,2.58h4.2v.49h-4.77v-2H136Zm0-3.85h3.49v-1H136Z" transform="translate(0.05)"/><path class="cls-3" d="M145.71,157.33h.54V164h-.54v-3.6h-1.1v2H142V158h2.63v1.87h1.1Zm-1.63,1.16h-1.56v3.42h1.56Zm3.54-1.32v7.16h-.55v-7.16Z" transform="translate(0.05)"/><path class="cls-3" d="M155.1,161.66h-1.66v2.66h-.56v-2.66h-1.83v2.66h-.56v-2.66h-1.66v-.49h6.27Zm-.74-1.56h-4.72v-2.55h.56v2.07h4.16Z" transform="translate(0.05)"/><path class="cls-3" d="M159.59,159.27a1.66,1.66,0,0,1-1.77,1.39,1.63,1.63,0,1,1,0-3.24,1.68,1.68,0,0,1,1.77,1.37h1.46v-1.62h.57v3.66h-.57v-1.56Zm-1.77.91a1.14,1.14,0,1,0-1.24-1.14A1.16,1.16,0,0,0,157.82,160.18Zm4.08,3.57v.47h-4.71v-1.76h3.88v-.76h-3.9v-.48h4.45v1.7h-3.87v.83Z" transform="translate(0.05)"/><path class="cls-3" d="M163.08,162.25a29.33,29.33,0,0,0,4.55-.25l0,.43a24.48,24.48,0,0,1-4.51.31Zm4.06-2.88a1.86,1.86,0,1,1-1.85-1.66A1.68,1.68,0,0,1,167.14,159.37Zm-3.16,0a1.31,1.31,0,0,0,2.61,0,1.31,1.31,0,0,0-2.61,0Zm4.68-2.2v7.16h-.56v-7.16Z" transform="translate(0.05)"/><path class="cls-3" d="M178.1,161.26h-1.69v3.07h-.56v-3.07h-1.8v3.07h-.57v-3.07h-1.65v-.49h4.62a11.73,11.73,0,0,0,.23-2.58v-.06h-4v-.49h4.59v.55a12.87,12.87,0,0,1-.21,2.58h1.08Z" transform="translate(0.05)"/><path class="cls-3" d="M182.71,161.15A3,3,0,0,1,181,159.5a3.08,3.08,0,0,1-1.76,1.86l-.3-.47a2.67,2.67,0,0,0,1.76-2.39v-.3h-1.58v-.49h3.71v.49h-1.56v.3a2.48,2.48,0,0,0,1.71,2.19Zm1.94,1.84c0,.84-.87,1.33-2.31,1.33s-2.29-.49-2.29-1.33.87-1.33,2.29-1.33S184.65,162.15,184.65,163Zm-.56,0c0-.54-.67-.86-1.75-.86s-1.73.32-1.73.86.66.86,1.73.86S184.09,163.53,184.09,163Zm0-3.94v-1.87h.56v4.25h-.56v-1.89h-1.43v-.49Z" transform="translate(0.05)"/><path class="cls-3" d="M188.31,159.14a3.64,3.64,0,0,0,1.8,3l-.35.47a3.94,3.94,0,0,1-1.73-2.29,4,4,0,0,1-1.74,2.43l-.35-.47a3.86,3.86,0,0,0,1.81-3.18v-1.33h.56Zm4.2,1.45h-1.17v3.74h-.56v-7.15h.56v2.92h1.17Z" transform="translate(0.05)"/><path class="cls-3" d="M197.25,158.47h-4.1V158h1.77v-.88h.56V158h1.77Zm-2.05,2.91c-1,0-1.66-.5-1.66-1.26s.66-1.26,1.66-1.26,1.65.5,1.65,1.26S196.19,161.38,195.2,161.38Zm0-.45c.66,0,1.11-.32,1.11-.81s-.45-.81-1.11-.81-1.12.32-1.12.81S194.53,160.93,195.2,160.93Zm3.38,2.15c0,.77-.84,1.23-2.24,1.23s-2.25-.46-2.25-1.23.85-1.23,2.25-1.23S198.58,162.3,198.58,163.08Zm-.56,0c0-.49-.64-.77-1.68-.77s-1.7.28-1.7.77.66.77,1.7.77S198,163.57,198,163.08Zm1.52-3.89v.49h-1v2.11h-.57v-4.62h.57v2Z" transform="translate(0.05)"/><path class="cls-3" d="M206.51,160.29v.48h-6.28v-.48Zm-5.58-1.75c0-.79.91-1.24,2.43-1.24s2.42.45,2.42,1.24-.9,1.24-2.42,1.24S200.93,159.34,200.93,158.54Zm.64,5.23h4.33v.47H201v-1.68h4.12v-.69H201v-.45h4.7V163h-4.12Zm-.06-5.23c0,.51.69.8,1.85.8s1.85-.29,1.85-.8-.69-.79-1.85-.79S201.51,158,201.51,158.54Z" transform="translate(0.05)"/><path class="cls-3" d="M57.74,174.87v.48H54.91v1.5h-.56v-1.5H51.43v-.48Zm-5.9-1c1.19-.17,2.39-.87,2.39-1.79v0H52v-.48h5.14V172H55v0c0,.91,1.21,1.62,2.38,1.79l-.22.47a3.29,3.29,0,0,1-2.52-1.6,3.29,3.29,0,0,1-2.53,1.6Zm1,3.83H57v.49H52.25v-2h.57Z" transform="translate(0.05)"/><path class="cls-3" d="M64.83,175.71H62v2.62H61.4v-2.62H58.56v-.49h6.27Zm-.55-1.31a3.72,3.72,0,0,1-2.59-1.7,3.58,3.58,0,0,1-2.57,1.7l-.23-.47c1.2-.19,2.51-1,2.51-2.09v-.41H62v.41c0,1,1.32,1.9,2.51,2.09Z" transform="translate(0.05)"/><path class="cls-3" d="M68,172.33h1.75v.48H65.61v-.48H67.4v-1.08H68Zm1.41,2.74a1.68,1.68,0,1,1-1.69-1.63A1.59,1.59,0,0,1,69.38,175.07Zm-.54,0a1.14,1.14,0,1,0-1.15,1.14A1.11,1.11,0,0,0,68.84,175.07Zm3.29-.44H71v3.7H70.4v-7.16H71v3h1.16Z" transform="translate(0.05)"/><path class="cls-3" d="M78.45,171.17v7.16h-.57v-3H76.17v1.14H73v-4.61h3.13v1h1.71v-1.73Zm-2.84,1.19h-2V176h2Zm2.27,2.52v-1.5H76.17v1.5Z" transform="translate(0.05)"/><path class="cls-3" d="M85.43,174.78a2.84,2.84,0,0,1-1.83-1.36,2.75,2.75,0,0,1-1.82,1.49l-.25-.45a2.17,2.17,0,0,0,1.78-1.88v-.2H81.74v-.48h1.57v-.76h.57v.76h1.56v.48H83.87v.2c0,.81.8,1.49,1.8,1.74Zm2.08,3v.47h-4.7V176.5h3.87v-.75h-3.9v-.46h4.45v1.65H83.36v.83Zm-.84-4.8v-1.79h.56v3.75h-.56v-1.48H85.23V173Z" transform="translate(0.05)"/><path class="cls-3" d="M91,173.34a3.6,3.6,0,0,0,1.84,2.95l-.34.46a4,4,0,0,1-1.78-2.27,4,4,0,0,1-1.79,2.41l-.33-.45a3.78,3.78,0,0,0,1.84-3.1v-.94h-1.6v-.49h3.77v.49H91Zm3.34-2.17v7.16h-.56v-4.05H92.22v-.49h1.56v-2.62Z" transform="translate(0.05)"/><path class="cls-3" d="M98.06,172.33h1.75v.48H95.7v-.48h1.8v-1.08h.56Zm1.41,2.74a1.68,1.68,0,1,1-1.68-1.63A1.58,1.58,0,0,1,99.47,175.07Zm-.54,0a1.14,1.14,0,1,0-1.14,1.14A1.1,1.1,0,0,0,98.93,175.07Zm3.3-.44h-1.17v3.7h-.56v-7.16h.56v3h1.17Z" transform="translate(0.05)"/><path class="cls-3" d="M106.75,171.37h.54V178h-.54v-3.35h-1.5a5.47,5.47,0,0,1-2,2.16l-.33-.42a4.75,4.75,0,0,0,2.39-3.77h-2.11v-.49h2.67a5.53,5.53,0,0,1-.36,2h1.29Zm2-.19v7.15h-.54v-7.15Z" transform="translate(0.05)"/><path class="cls-3" d="M116,175.1a26.74,26.74,0,0,1-4.33.29l-.07-.49h1.51v-1.57h.56v1.54a20.79,20.79,0,0,0,2.29-.19Zm-1.3-.94a9.57,9.57,0,0,0,.19-1.94H112v-.49h3.42v.37a10.68,10.68,0,0,1-.18,2.12Zm-1.47,3.52h4v.49h-4.56v-2.11h.56Zm4.81-4.15V174h-1v2.55h-.56v-5.4H117v2.36Z" transform="translate(0.05)"/><path class="cls-3" d="M119.72,176.1a19.86,19.86,0,0,0,3.45-.26l0,.49a21.48,21.48,0,0,1-3.5.26h-.57v-2.71h2.61v-1.55h-2.63v-.49h3.19v2.52h-2.6Zm4.7-4.94v7.17h-.57v-7.17Z" transform="translate(0.05)"/><path class="cls-3" d="M128.41,176.21c.69,0,1.38-.08,2-.16l0,.44a31.4,31.4,0,0,1-4.52.27l-.08-.5,2,0v-1.45h-1.44v-2.93h3.5v.49H127v1.95h3v.49h-1.53Zm3.06-5v7.16h-.56v-7.16Z" transform="translate(0.05)"/><path class="cls-3" d="M138.64,171.17v7.16h-.57v-3.92h-1.58c-.05,1.4-.74,2.29-1.71,2.29s-1.71-1-1.71-2.48.7-2.48,1.71-2.48,1.63.84,1.71,2.18h1.58v-2.75ZM136,174.22c0-1.18-.48-2-1.18-2s-1.18.78-1.18,2,.49,2,1.18,2S136,175.4,136,174.22Z" transform="translate(0.05)"/><path class="cls-3" d="M143.62,174.21c0,1.52-.73,2.49-1.73,2.49s-1.74-1-1.74-2.49.72-2.47,1.74-2.47S143.62,172.7,143.62,174.21Zm-.55,0c0-1.17-.49-2-1.18-2s-1.2.78-1.2,2,.5,2,1.2,2S143.07,175.39,143.07,174.21Zm2.29-.73v1.65h1.13v.48h-1.13v2.72h-.57v-7.15h.57V173h1.13v.49Z" transform="translate(0.05)"/><path class="cls-3" d="M153,172.55h-4.1v-.48h1.76v-.88h.57v.88H153Zm-2.06,3.06c-1,0-1.65-.52-1.65-1.31s.67-1.34,1.65-1.34,1.66.53,1.66,1.34S151.89,175.61,150.9,175.61Zm0-.46c.66,0,1.12-.34,1.12-.85s-.46-.88-1.12-.88-1.12.36-1.12.88S150.23,175.15,150.9,175.15Zm-.42,2.53h4v.49h-4.61v-2.06h.57Zm4.76-4.11v.49h-1v2.48h-.56v-5.35h.56v2.38Z" transform="translate(0.05)"/><path class="cls-3" d="M156.8,176a15.79,15.79,0,0,0,3.21-.25l.06.5a16.66,16.66,0,0,1-3.3.25h-.54v-4.68h3.22v.49H156.8Zm5.61-1.53h-1.16v3.82h-.57v-7.16h.57V174h1.16Z" transform="translate(0.05)"/><path class="cls-3" d="M163.18,177.33a.48.48,0,0,1,.47-.52.48.48,0,0,1,.48.52.49.49,0,0,1-.48.52A.48.48,0,0,1,163.18,177.33Z" transform="translate(0.05)"/><line class="cls-4" y1="52.87" x2="222.36" y2="52.87"/><path class="cls-2" d="M60.86,258.29c0,3.09-1.74,5.33-4.59,5.33s-4.6-2.24-4.6-5.33,1.75-5.32,4.6-5.32S60.86,255.21,60.86,258.29Zm-2.36,0c0-1.77-.77-3.12-2.24-3.12S54,256.52,54,258.29s.77,3.12,2.26,3.12S58.5,260.06,58.5,258.29Z" transform="translate(0.05)"/><path class="cls-2" d="M68.38,263.39h-7v-1.2l3-3.76c.87-1.07,1.41-1.61,1.41-2.24a1,1,0,0,0-1.08-1,1.19,1.19,0,0,0-1.21,1.23H61.13A3.28,3.28,0,0,1,64.66,253c2.29,0,3.63,1.44,3.63,3.13,0,1-.63,1.85-2,3.59l-1.34,1.65h3.47Z" transform="translate(0.05)"/><path class="cls-2" d="M69,262.34a1.33,1.33,0,1,1,1.33,1.32A1.31,1.31,0,0,1,69,262.34Z" transform="translate(0.05)"/><path class="cls-2" d="M84.35,260.62c0,1.66-1.42,2.77-3.62,2.77H76.45v-10.2h4.19c2,0,3.2,1,3.2,2.57a2.32,2.32,0,0,1-1.73,2.35A2.43,2.43,0,0,1,84.35,260.62Zm-6.87-2.87h2.88c1.61,0,2.49-.7,2.49-1.87s-.88-1.74-2.31-1.74H77.48Zm3.22,4.7c1.64,0,2.63-.81,2.63-1.95s-1-1.8-2.6-1.8H77.48v3.75Z" transform="translate(0.05)"/><path class="cls-2" d="M87.25,260.42l-1.29,3h-1.1l4.5-10.27h1l4.5,10.27H93.72l-1.28-3Zm2.59-6-2.17,5H92Z" transform="translate(0.05)"/><path class="cls-2" d="M104,259.81h1.07a4.65,4.65,0,0,1-4.71,3.79,5.31,5.31,0,0,1,0-10.62,4.66,4.66,0,0,1,4.71,3.8H104a3.59,3.59,0,0,0-3.64-2.78,4.29,4.29,0,0,0,0,8.58A3.58,3.58,0,0,0,104,259.81Z" transform="translate(0.05)"/><path class="cls-2" d="M108.08,260.72v2.67h-1v-10.2h1v6.06l5.66-6.06H115l-4.27,4.65,4.79,5.55h-1.31l-4.2-4.77Z" transform="translate(0.05)"/><path class="cls-2" d="M128.66,259.81h1.07A4.65,4.65,0,0,1,125,263.6,5.31,5.31,0,0,1,125,253a4.66,4.66,0,0,1,4.71,3.8h-1.07A3.58,3.58,0,0,0,125,254a4.29,4.29,0,0,0,0,8.58A3.57,3.57,0,0,0,128.66,259.81Z" transform="translate(0.05)"/><path class="cls-2" d="M141.58,258.29a5.16,5.16,0,1,1-5.15-5.31A5.22,5.22,0,0,1,141.58,258.29Zm-1.05,0a4.12,4.12,0,1,0-4.12,4.32A4.2,4.2,0,0,0,140.53,258.29Z" transform="translate(0.05)"/><path class="cls-2" d="M150.1,263.39h-6.55v-10.2h1v9.24h5.51Z" transform="translate(0.05)"/><path class="cls-2" d="M160.8,258.29a5.16,5.16,0,1,1-5.15-5.31A5.22,5.22,0,0,1,160.8,258.29Zm-1.05,0a4.12,4.12,0,1,0-4.12,4.32A4.2,4.2,0,0,0,159.75,258.29Z" transform="translate(0.05)"/><path class="cls-2" d="M163.81,259.69v3.7h-1v-10.2h3.69c2.22,0,3.77,1.25,3.77,3.26a3.13,3.13,0,0,1-2.74,3.15l3.17,3.79h-1.29l-3.1-3.7Zm2.62-1c1.61,0,2.76-.85,2.76-2.26s-1.15-2.28-2.76-2.28h-2.62v4.54Z" transform="translate(0.05)"/><path class="cls-2" d="M53.94,270.71h.84v5.4h-3v-5.4h.84v1.9h1.36Zm0,2.64H52.58v2h1.36ZM58.2,270v8.13h-.85v-4.21h-.9v3.83H55.6v-7.6h.85v3h.9V270Z" transform="translate(0.05)"/><path class="cls-2" d="M62.87,272.11a4.75,4.75,0,0,1-3.35,2.72l-.36-.74c1.85-.53,2.87-1.53,3-2.8H59.57v-.75h3.58a5.09,5.09,0,0,1-.07.81H64.7V270h.9v4.78h-.9v-.94H62.79v-.75H64.7v-.94Zm2.78,4.33c0,1-1,1.61-2.63,1.61s-2.63-.61-2.63-1.61,1-1.6,2.63-1.6S65.65,275.45,65.65,276.44Zm-.89,0c0-.56-.67-.87-1.74-.87s-1.74.31-1.74.87.67.88,1.74.88S64.76,277,64.76,276.44Z" transform="translate(0.05)"/><path class="cls-2" d="M70.13,274.41a2.74,2.74,0,0,1-1.47-1.5,3,3,0,0,1-1.56,1.72l-.48-.71a2.75,2.75,0,0,0,1.59-2.46v-1h.87v1a2.41,2.41,0,0,0,1.53,2.25Zm-2.14.88h5.34v2.81h-.9V276H68ZM73.33,270v4.92h-.85v-2.11h-.83v2.07H70.8v-4.75h.85V272h.83V270Z" transform="translate(0.05)"/><path class="cls-3" d="M55,302.66c0,1.77-1,3-3.14,3.58l-.21-.46A3.89,3.89,0,0,0,54,304.31l-2.31.17-.09-.48,2.61-.12a2.74,2.74,0,0,0,.18-.75H52v-.47Zm2.39,6.22v.47H52.71v-1.76h3.88v-.76H52.7v-.47h4.45V308H53.27v.85Zm-.82-4.35H55v-.48h1.55v-1.74h.57V306h-.57Z" transform="translate(0.05)"/><path class="cls-3" d="M59.37,307.24a15.88,15.88,0,0,0,3.11-.23l.05.48a16.61,16.61,0,0,1-3.2.24h-.52V305h2.53v-1.51H58.8V303h3.1v2.48H59.37Zm4.88-4.95v7.17h-.57v-3.89H62.32v-.49h1.36v-2.79Z" transform="translate(0.05)"/><path class="cls-3" d="M71.94,306v.49h-6.3V306ZM67,308.79h4.23v.49h-4.8v-2.09H67ZM71.21,305H66.5v-2.4h.57v1.92h4.14Z" transform="translate(0.05)"/><path class="cls-3" d="M80.14,302.3v7.17h-.56v-2.8h-1.8a1.61,1.61,0,0,1-1.49,1.16c-1,0-1.72-1-1.72-2.48s.71-2.48,1.72-2.48a1.58,1.58,0,0,1,1.45,1.05h1.84V302.3Zm-2.67,3.05c0-1.18-.49-2-1.18-2s-1.19.78-1.19,2,.49,2,1.19,2S77.47,306.53,77.47,305.35Zm2.11.84v-1.78H77.91a4.44,4.44,0,0,1,.1.94,3.8,3.8,0,0,1-.09.84Z" transform="translate(0.05)"/><path class="cls-3" d="M82.37,307.24a15.77,15.77,0,0,0,3.1-.23l.06.48a16.73,16.73,0,0,1-3.2.24h-.52V305h2.52v-1.51H81.79V303h3.1v2.48H82.37Zm4.87-4.95v7.17h-.56v-3.89H85.31v-.49h1.37v-2.79Z" transform="translate(0.05)"/><path class="cls-3" d="M96.61,307.9v.49H90.34v-.49Zm-1.41-4.34H91v-.48h4.73v.69a18.26,18.26,0,0,1-.27,3.48l-.57-.06a16.79,16.79,0,0,0,.28-3.42Z" transform="translate(0.05)"/><path class="cls-3" d="M98.22,307.23a13.81,13.81,0,0,0,2.49-.2l.05.48a14.4,14.4,0,0,1-2.63.2h-.46v-2.63h2v-1.5h-2v-.49h2.6v2.47h-2Zm5.09-4.93v7.15h-.54v-3.81h-1v3.44h-.54v-6.62h.54v2.69h1V302.3Z" transform="translate(0.05)"/><path class="cls-3" d="M109,305.92a28.93,28.93,0,0,1-4.24.24l-.06-.49h.9v-2.28h-.71v-.49h3.72v.49h-.71v2.2c.36,0,.72-.06,1.07-.1ZM105.6,307h4.62v2.46h-.57v-2H105.6Zm.51-1.35c.39,0,.8,0,1.2,0v-2.23h-1.2Zm4.11-3.35v4.33h-.57V302.3Z" transform="translate(0.05)"/><path class="cls-3" d="M119.63,308v.49h-6.31V308h1.58v-1.95a1.65,1.65,0,0,1-1-1.48c0-1.11,1-1.83,2.51-1.83s2.51.72,2.51,1.83a1.65,1.65,0,0,1-.93,1.48V308ZM116.46,306c1.15,0,2-.55,2-1.36s-.83-1.35-2-1.35-2,.54-2,1.35S115.32,306,116.46,306Zm-1,2.07h2V306.3a4,4,0,0,1-1,.13,4.56,4.56,0,0,1-1-.12Z" transform="translate(0.05)"/><path class="cls-3" d="M126.73,308v.48h-6.3V308h2.84v-1.77h.57V308Zm-.56-1.71a3.84,3.84,0,0,1-2.62-2,3.8,3.8,0,0,1-2.61,2l-.24-.49c1.16-.21,2.55-1.25,2.55-2.48v-.55h.6v.55c0,1.23,1.41,2.27,2.56,2.48Z" transform="translate(0.05)"/><path class="cls-3" d="M132.64,306.15v.8c1.32.05,2.09.49,2.09,1.24s-.88,1.25-2.37,1.25S130,309,130,308.19s.77-1.19,2.09-1.24v-.8h-2.85v-.49h6.27v.49Zm-3-1.41c1.19-.14,2.39-.78,2.41-1.62h-2.2v-.48h5.14v.48h-2.22c0,.84,1.23,1.48,2.42,1.62l-.2.46a3.29,3.29,0,0,1-2.58-1.48,3.29,3.29,0,0,1-2.57,1.48Zm2.77,2.66c-1.12,0-1.8.29-1.8.79s.68.8,1.8.8,1.8-.3,1.8-.8S133.48,307.4,132.36,307.4Z" transform="translate(0.05)"/><path class="cls-3" d="M141.55,303.08a5.4,5.4,0,0,1-3.16,5l-.32-.46a4.92,4.92,0,0,0,2.92-4.06h-2.6v-.48Zm2.92,2.64h-1.14v3.73h-.57V302.3h.57v2.94h1.14Z" transform="translate(0.05)"/><path class="cls-3" d="M148.85,306.26a2.83,2.83,0,0,1-1.7-1.58,3,3,0,0,1-1.77,1.79l-.28-.47a2.54,2.54,0,0,0,1.75-2.32v-.35h-1.58v-.48H149v.48h-1.57v.34a2.36,2.36,0,0,0,1.7,2.13Zm1.71,1.87c0,.83-.86,1.31-2.27,1.31S146,309,146,308.13s.86-1.3,2.28-1.3S150.56,307.31,150.56,308.13Zm-.56,0c0-.52-.66-.83-1.71-.83s-1.72.31-1.72.83.65.84,1.72.84S150,308.67,150,308.13Zm1.53-4v.49h-1v2h-.57v-4.32h.57v1.84Z" transform="translate(0.05)"/><path class="cls-3" d="M157.38,306.24h-3.15v-3.31h3.15v1.38H159v-2h.56v5.22H159V304.8h-1.66Zm-.56-2.84h-2v2.36h2Zm3,5.41v.49h-4.62v-2.23h.57v1.74Z" transform="translate(0.05)"/><path class="cls-3" d="M163.36,304.47a3.6,3.6,0,0,0,1.85,3l-.35.45a3.93,3.93,0,0,1-1.77-2.27,4.12,4.12,0,0,1-1.8,2.42l-.33-.46a3.77,3.77,0,0,0,1.84-3.1v-.94h-1.59V303H165v.49h-1.61Zm3.34-2.17v7.17h-.56v-4.06h-1.56v-.49h1.56V302.3Z" transform="translate(0.05)"/><path class="cls-3" d="M171.76,306.32a1.76,1.76,0,1,1,1.8-1.76A1.72,1.72,0,0,1,171.76,306.32Zm0-.51a1.25,1.25,0,1,0-1.24-1.25A1.21,1.21,0,0,0,171.76,305.81Zm3.94,3v.49h-4.65V307h.56v1.8Zm-.22-1.26h-.57v-5.23h.57Z" transform="translate(0.05)"/><path class="cls-3" d="M180.79,306.17a3,3,0,0,1-1.76-1.76,3.11,3.11,0,0,1-1.76,1.89l-.3-.46a2.75,2.75,0,0,0,1.77-2.5v-.7h.56v.7a2.63,2.63,0,0,0,1.77,2.37ZM178,307h4.62v2.48H182v-2h-4Zm4.62-4.68v4.31H182V302.3Z" transform="translate(0.05)"/><path class="cls-3" d="M186.58,307.35c.68,0,1.37-.08,2-.16l0,.43a31.4,31.4,0,0,1-4.52.27l-.08-.5c.61,0,1.28,0,2,0v-1.45h-1.44V303h3.5v.49h-2.94v1.95h3v.49h-1.52Zm3-5.05v7.17h-.56V302.3Z" transform="translate(0.05)"/><path class="cls-3" d="M197.39,306v.49h-6.3V306Zm-4.91,2.83h4.22v.49h-4.79v-2.09h.57Zm4.18-3.82H192v-2.4h.57v1.92h4.14Z" transform="translate(0.05)"/><path class="cls-3" d="M55.34,320.17a3.05,3.05,0,0,1-1.76-1.76,3.08,3.08,0,0,1-1.76,1.89l-.29-.46a2.76,2.76,0,0,0,1.77-2.5v-.7h.56v.7a2.63,2.63,0,0,0,1.77,2.37Zm-2.83.81h4.62v2.48h-.56v-2H52.51Zm4.62-4.68v4.31h-.56V316.3Z" transform="translate(0.05)"/><path class="cls-3" d="M62,319.75h-3.1v-3.11h.56v1.06h2v-1.05H62v.69h1.67v-1h.56V320h-.56v-.93H62Zm-.56-1.59h-2v1.11h2Zm3.07,4.72v.47h-4.7v-1.74h3.87v-.73h-3.9v-.48h4.45v1.67H60.37v.81ZM62,317.8v.84h1.67v-.84Z" transform="translate(0.05)"/><path class="cls-3" d="M69.39,320.18a14.94,14.94,0,0,1-3,.18h-.49v-2.1h2.41v-1H65.93v-.49h3v2H66.5v1.16a14.38,14.38,0,0,0,2.83-.18Zm-2.67.92h4.63v2.37h-.57v-1.89H66.72Zm4.63-4.79v4.4h-.57v-1.37H69.39v-.49h1.39v-1H69.39v-.49h1.39v-1.07Z" transform="translate(0.05)"/><path class="cls-3" d="M76.52,319.35c0,1.51-.73,2.48-1.75,2.48s-1.76-1-1.76-2.48.73-2.48,1.76-2.48S76.52,317.84,76.52,319.35Zm-3,0c0,1.18.5,2,1.21,2s1.21-.78,1.21-2-.5-2-1.21-2S73.56,318.17,73.56,319.35Zm4.86-3.05v7.17h-.57V316.3Z" transform="translate(0.05)"/><path class="cls-3" d="M81.8,317.14h2.62v4.37H81.8Zm.53,3.9H83.9v-3.42H82.33Zm5.1-4.74v7.16h-.54v-3.82h-1v3.46h-.53v-6.64h.53v2.7h1V316.3Z" transform="translate(0.05)"/><path class="cls-3" d="M94.93,320.91H92.06v2.55h-.57v-2.55H88.64v-.49h6.29Zm-5.57-2.75c0-1,1-1.56,2.41-1.56s2.42.6,2.42,1.56-1,1.56-2.42,1.56S89.36,319.12,89.36,318.16Zm.58,0c0,.65.74,1.08,1.83,1.08s1.84-.43,1.84-1.08-.75-1.08-1.84-1.08S89.94,317.51,89.94,318.16Z" transform="translate(0.05)"/><path class="cls-3" d="M103.72,319.6v.48H97.44v-.48h2.86v-1h-2v-2.18h.56v1.7H103v.48h-2.14v1Zm-1.78,3.27h1.14v.48h-5v-.48h1.14v-1.56H98.14v-.48H103v.48h-1.08Zm-2.16,0h1.6v-1.56h-1.6Z" transform="translate(0.05)"/><path class="cls-3" d="M110.81,320.08v.49h-6.28v-.49ZM105.24,318c0-.88,1-1.41,2.43-1.41s2.43.53,2.43,1.41-.94,1.43-2.43,1.43S105.24,318.85,105.24,318Zm.68,4.85h4.2v.49h-4.77v-2.07h.57Zm-.1-4.85c0,.6.73,1,1.85,1s1.85-.35,1.85-1-.73-.93-1.85-.93S105.82,317.39,105.82,318Z" transform="translate(0.05)"/><path class="cls-3" d="M115.75,318.27a3.65,3.65,0,0,0,1.87,3.09l-.33.47a4,4,0,0,1-1.82-2.31,4,4,0,0,1-1.82,2.43l-.35-.48a3.75,3.75,0,0,0,1.89-3.2v-1.33h.56Zm3.25-2v7.17h-.57V316.3Z" transform="translate(0.05)"/><path class="cls-3" d="M123.92,316.76c0,1.8-1.23,3.08-3.26,3.66l-.23-.47c1.71-.47,2.77-1.45,2.89-2.7h-2.58v-.49Zm-2.61,4.08h4.49v2.62h-.57v-2.14h-3.92Zm5.53-2.21h-1v1.87h-.57v-4.2h.57v1.84h1Z" transform="translate(0.05)"/><path class="cls-3" d="M135.53,322v.49h-6.32V322h1.58v-1.95a1.65,1.65,0,0,1-.95-1.48c0-1.11,1-1.83,2.52-1.83s2.51.72,2.51,1.83a1.64,1.64,0,0,1-.94,1.48V322ZM132.36,320c1.14,0,2-.55,2-1.36s-.83-1.35-2-1.35-2,.54-2,1.35S131.22,320,132.36,320Zm-1,2.07h2V320.3a4,4,0,0,1-1,.13,4.58,4.58,0,0,1-1-.12Z" transform="translate(0.05)"/><path class="cls-3" d="M142.63,322v.48h-6.31V322h2.84v-1.77h.57V322Zm-.57-1.71a3.84,3.84,0,0,1-2.62-2,3.8,3.8,0,0,1-2.61,2l-.24-.49c1.16-.21,2.56-1.25,2.56-2.48v-.55h.59v.55c0,1.23,1.41,2.27,2.56,2.48Z" transform="translate(0.05)"/><path class="cls-3" d="M147.19,319.35c0,1.51-.73,2.48-1.75,2.48s-1.76-1-1.76-2.48.73-2.48,1.76-2.48S147.19,317.84,147.19,319.35Zm-3,0c0,1.18.5,2,1.21,2s1.21-.78,1.21-2-.5-2-1.21-2S144.23,318.17,144.23,319.35Zm4.86-3.05v7.17h-.57V316.3Z" transform="translate(0.05)"/><path class="cls-3" d="M151.39,321.17a15.79,15.79,0,0,0,3.21-.25l.06.51a16.7,16.7,0,0,1-3.3.24h-.54V317h3.23v.48h-2.66Zm5.62-1.53h-1.17v3.83h-.57V316.3h.57v2.86H157Z" transform="translate(0.05)"/><path class="cls-3" d="M157.77,322.47a.48.48,0,1,1,.95,0,.48.48,0,1,1-.95,0Z" transform="translate(0.05)"/><path class="cls-3" d="M52.23,335.07a6.37,6.37,0,0,0,1.26-.15l.06.48a6.64,6.64,0,0,1-1.58.15h-.3v-4.5h1.74v.49H52.23Zm2.14,0a5.73,5.73,0,0,0,1.51-.17l.07.49a7.06,7.06,0,0,1-1.81.16h-.33v-4.5h1.84v.49H54.37Zm3.54-1.44h-1v3.83h-.57v-7.17h.57v2.85h1Z" transform="translate(0.05)"/><path class="cls-3" d="M59.39,335.23a15.19,15.19,0,0,0,3.29-.26l0,.5a17.12,17.12,0,0,1-3.35.25h-.54V333h2.55v-1.55H58.81V331h3.13v2.53H59.39ZM65,333.66H63.87v3.8H63.3v-7.17h.57v2.88H65Z" transform="translate(0.05)"/><path class="cls-3" d="M68.05,332.26a3.63,3.63,0,0,0,1.81,3.08l-.34.47a4,4,0,0,1-1.75-2.32A4.09,4.09,0,0,1,66,335.94l-.36-.47a3.85,3.85,0,0,0,1.82-3.21v-1.33h.57Zm3.3-2v7.17h-.57v-4.22H69.11v-.49h1.67V330.3Z" transform="translate(0.05)"/><path class="cls-3" d="M76.45,332.35a3.57,3.57,0,0,0,1.5,3.06l-.35.42a3.47,3.47,0,0,1-1.42-2.14A3.74,3.74,0,0,1,74.72,336l-.36-.43a3.81,3.81,0,0,0,1.54-3.23v-.71H74.54v-.48h3.19v.48H76.45Zm1.94-1.87h.54v6.6h-.54v-3.7H77.2v-.49h1.19Zm1.93-.18v7.16h-.54V330.3Z" transform="translate(0.05)"/><path class="cls-3" d="M85.26,334.3a2.89,2.89,0,0,1-1.68-1.64,3,3,0,0,1-1.75,1.78l-.3-.46a2.57,2.57,0,0,0,1.75-2.34v-.33H81.7v-.49h3.72v.49H83.85v.33a2.42,2.42,0,0,0,1.7,2.19Zm-2.83.7h4.49v2.46h-.57v-2H82.43ZM88,332.7h-1v1.91h-.57v-4.3h.57v1.9h1Z" transform="translate(0.05)"/><path class="cls-3" d="M92.06,333.83v.74h2v1.57H90v.76h4.33v.47H89.43v-1.66h4.12V335H89.4v-.45h2.1v-.74H88.64v-.47h6.29v.47Zm2-1.12H89.47v-2.17H94.1Zm-.55-1.7H90v1.23h3.53Z" transform="translate(0.05)"/><path class="cls-3" d="M95.79,335.38a29.27,29.27,0,0,0,4.55-.25l0,.43a23.68,23.68,0,0,1-4.52.31Zm4.06-2.88A1.86,1.86,0,1,1,98,330.84,1.68,1.68,0,0,1,99.85,332.5Zm-3.15,0a1.31,1.31,0,0,0,2.6,0,1.31,1.31,0,0,0-2.6,0Zm4.67-2.2v7.17h-.56V330.3Z" transform="translate(0.05)"/><path class="cls-3" d="M107.7,334.18a2.58,2.58,0,0,1-1.39-1.46,2.91,2.91,0,0,1-1.44,1.64l-.3-.46a2.55,2.55,0,0,0,1.46-2.18v-1h.54v1a2.23,2.23,0,0,0,1.44,2Zm-2,.86h4.63v2.42h-.56v-1.95h-4.07Zm4.63-4.72v4.31h-.54v-1.95h-1v1.9h-.53v-4.14h.53v1.76h1v-1.88Z" transform="translate(0.05)"/><path class="cls-3" d="M115.33,334.17a3,3,0,0,1-1.68-1.67,3,3,0,0,1-1.74,1.87l-.29-.47a2.67,2.67,0,0,0,1.74-2.48v-.75h.57v.79a2.51,2.51,0,0,0,1.7,2.25Zm1.75,2c0,.82-.85,1.29-2.27,1.29s-2.27-.47-2.27-1.29.86-1.28,2.27-1.28S117.08,335.34,117.08,336.15Zm-.56,0c0-.51-.65-.81-1.71-.81s-1.72.3-1.72.81.66.83,1.72.83S116.52,336.67,116.52,336.15Zm1.53-4v.49h-1v2h-.57v-4.35H117v1.88Z" transform="translate(0.05)"/><path class="cls-3" d="M126.73,336.09v.49h-6.3v-.49h1.78v-1.77H121v-.48h1.09v-2.37H121V331h5.13v.49H125v2.37h1.1v.48h-1.21v1.77Zm-4.07-2.25h1.79v-2.37h-1.79Zm.11,2.25h1.57v-1.77h-1.57Z" transform="translate(0.05)"/><path class="cls-3" d="M131.44,331.68h-3.9v-.47h1.7v-.91h.56v.91h1.64Zm-1.92,3.15a1.38,1.38,0,1,1,1.55-1.38A1.4,1.4,0,0,1,129.52,334.83Zm0-.47a.91.91,0,1,0-1-.91A.91.91,0,0,0,129.52,334.36Zm3.88,2.45v.49h-4.61v-2h.56v1.52Zm-.74-4.58v-1.91h.57v5.45h-.57v-1.56h-1.23v-.49h1.23v-1h-1.23v-.48Z" transform="translate(0.05)"/><path class="cls-3" d="M138.74,332.27a3.65,3.65,0,0,0,1.87,3.09l-.33.47a4,4,0,0,1-1.82-2.31,4,4,0,0,1-1.81,2.43l-.35-.48a3.76,3.76,0,0,0,1.88-3.2v-1.33h.56Zm3.25-2v7.17h-.57V330.3Z" transform="translate(0.05)"/><path class="cls-3" d="M151.39,335.94v.49h-6.27v-.49h2.48v-2.58h.56v2.58Zm-1.34-4.41h-4.26V331h4.83v.72a16.44,16.44,0,0,1-.26,3.28l-.57-.08a15.52,15.52,0,0,0,.26-3.2Z" transform="translate(0.05)"/><path class="cls-3" d="M158.5,334.88h-1.67v2.58h-.58v-2.58h-1.81v2.58h-.57v-2.58h-1.66v-.49h6.29Zm-5.57-2.73c0-.95,1-1.55,2.41-1.55s2.42.6,2.42,1.55-1,1.55-2.42,1.55S152.93,333.1,152.93,332.15Zm.58,0c0,.65.74,1.07,1.83,1.07s1.84-.42,1.84-1.07-.75-1.07-1.84-1.07S153.51,331.5,153.51,332.15Z" transform="translate(0.05)"/><path class="cls-3" d="M164.78,333.35c0,1.51-.73,2.48-1.76,2.48s-1.75-1-1.75-2.48.73-2.48,1.75-2.48S164.78,331.84,164.78,333.35Zm-3,0c0,1.18.51,2,1.21,2s1.21-.78,1.21-2-.5-2-1.21-2S161.81,332.17,161.81,333.35Zm4.86-3.05v7.17h-.56V330.3Z" transform="translate(0.05)"/><path class="cls-3" d="M171.68,331v4.62h-3.16V331Zm-2.61.48v3.67h2.06v-3.67Zm4.7-1.19v7.17h-.56V330.3Z" transform="translate(0.05)"/><path class="cls-3" d="M177.64,332.53a3.4,3.4,0,0,0,1.89,2.9l-.32.47a3.87,3.87,0,0,1-1.85-2.22,4.07,4.07,0,0,1-1.81,2.39l-.33-.46a3.77,3.77,0,0,0,1.86-3.08v-1h-1.64V331h3.87v.49h-1.67Zm3.23-2.22v7.14h-.56v-7.14Z" transform="translate(0.05)"/><path class="cls-3" d="M188.6,333.64v.46h-6.3v-.46Zm-5,3.28H188v.43h-5v-1.56h4.17v-.64h-4.18v-.43h4.74v1.49h-4.17Zm3.59-6H183.1v-.42h4.69V332h-4.11v.66h4.23v.43h-4.79v-1.5h4.11Z" transform="translate(0.05)"/><path class="cls-3" d="M57.74,348.88H56.06v2.58h-.57v-2.58H53.68v2.58H53.1v-2.58H51.45v-.49h6.29Zm-5.57-2.73c0-.95,1-1.55,2.41-1.55s2.41.6,2.41,1.55-1,1.55-2.41,1.55S52.17,347.1,52.17,346.15Zm.58,0c0,.65.74,1.07,1.83,1.07s1.84-.42,1.84-1.07-.75-1.07-1.84-1.07S52.75,345.5,52.75,346.15Z" transform="translate(0.05)"/><path class="cls-3" d="M61,346.53a3.38,3.38,0,0,0,1.89,2.9l-.32.47a3.84,3.84,0,0,1-1.85-2.22,4.11,4.11,0,0,1-1.81,2.39l-.34-.46a3.76,3.76,0,0,0,1.87-3.08v-1H58.78V345h3.88v.49H61Zm3.23-2.22v7.14h-.57v-7.14Z" transform="translate(0.05)"/><path class="cls-3" d="M68,345.46h1.75v.48H65.61v-.48H67.4v-1.08H68Zm1.41,2.74a1.68,1.68,0,1,1-1.69-1.63A1.59,1.59,0,0,1,69.38,348.2Zm-.54,0a1.14,1.14,0,1,0-1.15,1.15A1.11,1.11,0,0,0,68.84,348.2Zm3.29-.44H71v3.7H70.4V344.3H71v3h1.16Z" transform="translate(0.05)"/><path class="cls-3" d="M79.06,350.05v.49H72.74v-.49h2.87v-1.89h-2v-3.28h4.68v.49H74.12v2.3h4.2v.49H76.18v1.89Z" transform="translate(0.05)"/><path class="cls-3" d="M86.15,348.25v.49H79.84v-.49h2.88v-.79h-2v-1.71h4.1V345H80.65v-.47h4.68v1.7H81.22V347h4.25v.46H83.28v.79Zm-5.6,1.06h4.81v2.08H84.8v-1.6H80.55Z" transform="translate(0.05)"/><path class="cls-3" d="M91.8,348.18a2.62,2.62,0,0,1-1.39-1.46A2.89,2.89,0,0,1,89,348.36l-.31-.46a2.53,2.53,0,0,0,1.46-2.18v-1h.55v1a2.24,2.24,0,0,0,1.43,2Zm-2,.86h4.64v2.42h-.57v-1.95H89.85Zm4.64-4.72v4.31H94v-1.95H93v1.9h-.53v-4.14H93v1.76h1v-1.88Z" transform="translate(0.05)"/><path class="cls-3" d="M99.44,348.17a3,3,0,0,1-1.68-1.67A3,3,0,0,1,96,348.37l-.29-.47a2.67,2.67,0,0,0,1.74-2.48v-.75H98v.79a2.51,2.51,0,0,0,1.71,2.25Zm1.75,2c0,.82-.86,1.29-2.27,1.29s-2.28-.47-2.28-1.29.87-1.28,2.28-1.28S101.19,349.34,101.19,350.15Zm-.56,0c0-.51-.65-.81-1.71-.81s-1.72.3-1.72.81.66.83,1.72.83S100.63,350.67,100.63,350.15Zm1.53-4v.49h-1v2h-.57v-4.35h.57v1.88Z" transform="translate(0.05)"/><path class="cls-3" d="M108.28,348.45a3,3,0,0,1-1.69-1.74,3.09,3.09,0,0,1-1.74,1.91l-.3-.46a2.77,2.77,0,0,0,1.76-2.52v-.9h.55v.92a2.62,2.62,0,0,0,1.72,2.34Zm2.13,2.36v.49h-4.62v-2.23h.57v1.74Zm-.74-4.3H108.1V346h1.57v-1.7h.57v5.35h-.57Z" transform="translate(0.05)"/><path class="cls-3" d="M115.42,348.28a3,3,0,0,1-1.69-1.64,3.09,3.09,0,0,1-1.76,1.85l-.3-.47a2.66,2.66,0,0,0,1.77-2.39v-.3h-1.59v-.49h3.71v.49H114v.3a2.5,2.5,0,0,0,1.71,2.19Zm1.94,1.84c0,.84-.87,1.33-2.31,1.33s-2.29-.49-2.29-1.33.87-1.33,2.29-1.33S117.36,349.28,117.36,350.12Zm-.56,0c0-.54-.67-.86-1.75-.86s-1.73.32-1.73.86.67.87,1.73.87S116.8,350.67,116.8,350.12Zm0-3.94v-1.87h.57v4.25h-.57v-1.89h-1.43v-.49Z" transform="translate(0.05)"/><path class="cls-3" d="M122.51,347.35c0,1.51-.73,2.48-1.76,2.48s-1.75-1-1.75-2.48.73-2.48,1.75-2.48S122.51,345.84,122.51,347.35Zm-3,0c0,1.18.51,2,1.21,2s1.22-.78,1.22-2-.51-2-1.22-2S119.54,346.17,119.54,347.35Zm4.87-3.05v7.17h-.57V344.3Z" transform="translate(0.05)"/><path class="cls-3" d="M126.69,349.14a15.47,15.47,0,0,0,3.22-.32l.06.49a16.21,16.21,0,0,1-3.3.32h-.55V345h.57Zm5.61-1.46h-1.14v3.77h-.57V344.3h.57v2.88h1.14Z" transform="translate(0.05)"/><path class="cls-3" d="M137,345h.52v4.65h-2.64V345h.55v1.77H137Zm0,2.25h-1.57v1.92H137Zm3.52-2.93v7.15H140v-3.82h-1v3.46h-.54v-6.63H139v2.69h1v-2.85Z" transform="translate(0.05)"/><path class="cls-3" d="M144.89,348.18a2.62,2.62,0,0,1-1.39-1.46,2.87,2.87,0,0,1-1.44,1.64l-.3-.46a2.55,2.55,0,0,0,1.46-2.18v-1h.54v1a2.25,2.25,0,0,0,1.44,2Zm-1.95.86h4.64v2.42H147v-1.95h-4.07Zm4.64-4.72v4.31H147v-1.95h-.95v1.9h-.54v-4.14h.54v1.76H147v-1.88Z" transform="translate(0.05)"/><path class="cls-3" d="M152.81,344.47h.54v6.63h-.54v-3.5h-.95c-.06,1.4-.62,2.26-1.47,2.26s-1.47-.95-1.47-2.48.58-2.46,1.47-2.46,1.4.84,1.47,2.19h.95Zm-1.46,2.91c0-1.16-.38-1.92-1-1.92s-.95.76-.95,1.92.37,1.94.95,1.94S151.35,348.56,151.35,347.38Zm3.37-3.07v7.15h-.55v-7.15Z" transform="translate(0.05)"/><path class="cls-3" d="M163.9,348.88H161v2.57h-.57v-2.57h-2.84v-.48h6.27ZM158,347.29c1.16-.17,2.44-1,2.44-2v-.07h-2.22v-.49h5.06v.49h-2.21v.07c0,1,1.28,1.8,2.44,2l-.22.47a3.57,3.57,0,0,1-2.54-1.68,3.53,3.53,0,0,1-2.53,1.68Z" transform="translate(0.05)"/><path class="cls-3" d="M164.77,349.38a29.33,29.33,0,0,0,4.55-.25l.05.43a23.79,23.79,0,0,1-4.52.31Zm4.06-2.88a1.86,1.86,0,1,1-1.85-1.66A1.68,1.68,0,0,1,168.83,346.5Zm-3.15,0a1.31,1.31,0,1,0,1.3-1.16A1.2,1.2,0,0,0,165.68,346.5Zm4.67-2.2v7.17h-.56V344.3Z" transform="translate(0.05)"/><path class="cls-3" d="M178.12,347.64v.46h-6.3v-.46Zm-5,3.28h4.39v.43h-5v-1.56h4.17v-.64h-4.19v-.43h4.75v1.49h-4.17Zm3.59-6h-4.13v-.42h4.68V346h-4.1v.66h4.23v.43h-4.79v-1.5h4.11Z" transform="translate(0.05)"/><path class="cls-3" d="M55.09,359.08a5.38,5.38,0,0,1-3.24,5l-.3-.47a4.82,4.82,0,0,0,3-4.07H51.86v-.48Zm2-.78v7.16h-.56V358.3Z" transform="translate(0.05)"/><path class="cls-3" d="M62,361.85v.7h2v1.57H59.89v.78h4.34v.47H59.34v-1.68h4.12V363H59.32v-.45h2.09v-.7H58.56v-.48h6.26v.48Zm-2.71-2.21c0-.8.9-1.25,2.43-1.25s2.42.45,2.42,1.25-.9,1.24-2.42,1.24S59.26,360.43,59.26,359.64Zm.58,0c0,.5.68.79,1.85.79s1.85-.29,1.85-.79-.7-.8-1.85-.8S59.84,359.13,59.84,359.64Z" transform="translate(0.05)"/><path class="cls-3" d="M71.35,358.3v7.17h-.57v-2.8H69a1.62,1.62,0,0,1-1.49,1.16c-1,0-1.72-1-1.72-2.48s.71-2.48,1.72-2.48A1.58,1.58,0,0,1,69,359.92h1.83V358.3Zm-2.67,3.05c0-1.18-.49-2-1.18-2s-1.19.78-1.19,2,.49,2,1.19,2S68.68,362.53,68.68,361.35Zm2.1.84v-1.78H69.11a3.87,3.87,0,0,1,.1.94,4.52,4.52,0,0,1-.08.84Z" transform="translate(0.05)"/><path class="cls-3" d="M76.33,361.34c0,1.52-.72,2.49-1.73,2.49s-1.73-1-1.73-2.49.71-2.47,1.73-2.47S76.33,359.84,76.33,361.34Zm-.54,0c0-1.17-.49-1.95-1.19-1.95s-1.2.78-1.2,1.95.5,2,1.2,2S75.79,362.52,75.79,361.34Zm2.28-.73v1.65H79.2v.49H78.07v2.71H77.5v-7.15h.57v1.81H79.2v.49Z" transform="translate(0.05)"/><path class="cls-3" d="M84,359.68h-4.1v-.47h1.76v-.89h.57v.89H84Zm-2.06,3.07c-1,0-1.65-.53-1.65-1.32s.67-1.34,1.65-1.34,1.66.53,1.66,1.34S82.91,362.75,81.92,362.75Zm0-.47c.66,0,1.12-.34,1.12-.85s-.46-.87-1.12-.87-1.11.35-1.11.87S81.26,362.28,81.92,362.28Zm-.42,2.53h4v.49H80.93v-2.06h.57Zm4.77-4.11v.49h-1v2.48h-.56v-5.35h.56v2.38Z" transform="translate(0.05)"/><path class="cls-3" d="M87.82,363.17a15.73,15.73,0,0,0,3.21-.25l.06.51a16.7,16.7,0,0,1-3.3.24h-.54V359h3.23v.48H87.82Zm5.62-1.53H92.27v3.83H91.7V358.3h.57v2.86h1.17Z" transform="translate(0.05)"/><path class="cls-3" d="M94.2,364.47a.48.48,0,1,1,1,0,.48.48,0,1,1-1,0Z" transform="translate(0.05)"/><path class="cls-3" d="M104.07,362.39h-1.68v3.07h-.56v-3.07H100v3.07h-.57v-3.07H97.81v-.49h4.62a12.22,12.22,0,0,0,.22-2.57v-.07h-4v-.49h4.59v.56a13.46,13.46,0,0,1-.2,2.57h1.07Z" transform="translate(0.05)"/><path class="cls-3" d="M108.69,362.28a2.94,2.94,0,0,1-1.69-1.64,3.08,3.08,0,0,1-1.77,1.85l-.29-.47a2.65,2.65,0,0,0,1.76-2.39v-.3h-1.58v-.49h3.71v.49h-1.56v.3a2.48,2.48,0,0,0,1.71,2.19Zm1.93,1.84c0,.84-.87,1.33-2.3,1.33S106,365,106,364.12s.87-1.33,2.29-1.33S110.62,363.28,110.62,364.12Zm-.56,0c0-.54-.66-.86-1.74-.86s-1.73.32-1.73.86.66.87,1.73.87S110.06,364.67,110.06,364.12Zm0-3.94v-1.87h.57v4.25H110v-1.89H108.6v-.49Z" transform="translate(0.05)"/><path class="cls-3" d="M116.56,362.47a33.12,33.12,0,0,1-4.44.26l-.09-.49c.61,0,1.3,0,2,0v-1.06h-1.37v-2.38H116v.49h-2.72v1.41H116v.48h-1.41v1c.66,0,1.32-.07,1.92-.15Zm1.34,2.34v.49h-4.69v-2h.57v1.5Zm-.23-1.16h-.57v-5.34h.57Z" transform="translate(0.05)"/><path class="cls-3" d="M121.76,358.91v1.92h2.12v-1.92h.56v4.82H121.2v-4.82Zm0,4.33h2.12V361.3h-2.12Zm4.7-4.95v7.18h-.57v-7.18Z" transform="translate(0.05)"/><path class="cls-3" d="M132.4,361.81v.74h1v1.57h-4.12v.78h4.33v.47h-4.89v-1.68h4.12V363h-4.14v-.45h1v-.74H127.9v-.48h6.27v.48Zm-3.8-2.17c0-.8.91-1.25,2.43-1.25s2.42.45,2.42,1.25-.9,1.24-2.42,1.24S128.6,360.43,128.6,359.64Zm.58,0c0,.5.69.79,1.85.79s1.85-.29,1.85-.79-.69-.8-1.85-.8S129.18,359.13,129.18,359.64Zm2.65,2.17h-1.65v.74h1.65Z" transform="translate(0.05)"/><path class="cls-3" d="M141.29,364.07v.48H135v-.48h2.86v-1.4h-2.06V360.5h4.15v-1.17h-4.16v-.49h4.71V361h-4.14v1.23h4.3v.47h-2.23v1.4Z" transform="translate(0.05)"/><path class="cls-3" d="M150.09,364v.49h-6.31V364h2.88v-1.75h.56V364Zm-6-2c1.13-.2,2.53-1.2,2.53-2.36v-.22h-2.33V359h5.25v.49h-2.33v.22c0,1.16,1.41,2.15,2.55,2.35l-.22.46a3.77,3.77,0,0,1-2.62-1.93,3.78,3.78,0,0,1-2.6,1.95Z" transform="translate(0.05)"/><path class="cls-3" d="M154.67,362.28a3,3,0,0,1-1.69-1.64,3.09,3.09,0,0,1-1.76,1.85l-.3-.47a2.66,2.66,0,0,0,1.77-2.39v-.3H151.1v-.49h3.71v.49h-1.56v.3a2.5,2.5,0,0,0,1.71,2.19Zm1.94,1.84c0,.84-.87,1.33-2.31,1.33S152,365,152,364.12s.87-1.33,2.29-1.33S156.61,363.28,156.61,364.12Zm-.56,0c0-.54-.67-.86-1.75-.86s-1.73.32-1.73.86.67.87,1.73.87S156.05,364.67,156.05,364.12Zm0-3.94v-1.87h.57v4.25H156v-1.89h-1.43v-.49Z" transform="translate(0.05)"/><path class="cls-3" d="M160.31,359.46h1.75v.48H158v-.48h1.79v-1.08h.57Zm1.4,2.74a1.68,1.68,0,1,1-1.68-1.63A1.58,1.58,0,0,1,161.71,362.2Zm-.53,0a1.15,1.15,0,1,0-1.15,1.15A1.11,1.11,0,0,0,161.18,362.2Zm3.29-.44h-1.16v3.7h-.57V358.3h.57v3h1.16Z" transform="translate(0.05)"/><path class="cls-3" d="M170.79,358.3v7.17h-.57v-2.8h-1.79a1.62,1.62,0,0,1-1.5,1.16c-1,0-1.71-1-1.71-2.48s.7-2.48,1.71-2.48a1.59,1.59,0,0,1,1.46,1.05h1.83V358.3Zm-2.68,3.05c0-1.18-.48-2-1.18-2s-1.18.78-1.18,2,.48,2,1.18,2S168.11,362.53,168.11,361.35Zm2.11.84v-1.78h-1.67a4.44,4.44,0,0,1,.1.94,3.8,3.8,0,0,1-.09.84Z" transform="translate(0.05)"/><path class="cls-3" d="M177.42,359.08a5.4,5.4,0,0,1-3.16,5l-.32-.46a4.91,4.91,0,0,0,2.91-4.06h-2.59v-.48Zm2.92,2.64H179.2v3.73h-.57V358.3h.57v2.94h1.14Z" transform="translate(0.05)"/><path class="cls-3" d="M184.71,362.26a2.89,2.89,0,0,1-1.7-1.58,2.92,2.92,0,0,1-1.76,1.79L181,362a2.54,2.54,0,0,0,1.75-2.32v-.35h-1.58v-.49h3.71v.49h-1.57v.34A2.35,2.35,0,0,0,185,361.8Zm1.71,1.87c0,.83-.85,1.31-2.27,1.31s-2.27-.48-2.27-1.31.86-1.3,2.27-1.3S186.42,363.31,186.42,364.13Zm-.56,0c0-.52-.66-.83-1.71-.83s-1.71.31-1.71.83.65.84,1.71.84S185.86,364.67,185.86,364.13Zm1.53-4v.49h-1v2h-.56v-4.32h.56v1.84Z" transform="translate(0.05)"/><path class="cls-3" d="M196.08,361.61v.49h-6.32v-.49h4.73a10.84,10.84,0,0,0,.2-2.32v-.08h-4.11v-.48h4.67v.56a11.3,11.3,0,0,1-.19,2.32Zm-4.91,3.19h4.29v.49H190.6v-2.36h.57Z" transform="translate(0.05)"/><path class="cls-3" d="M200.66,362.13a3,3,0,0,1-1.69-1.65,3,3,0,0,1-1.77,1.83l-.3-.48a2.61,2.61,0,0,0,1.77-2.35v-.25h-1.58v-.48h3.71v.48h-1.56v.25a2.48,2.48,0,0,0,1.71,2.19Zm1.34.41h.56v2.82h-4.41v-2.82h.56v.92H202Zm0,1.39h-3.29v.94H202Zm.56-5.63v3.89H202v-1.64h-1.43v-.49H202V358.3Z" transform="translate(0.05)"/><path class="cls-3" d="M208.1,359.68H204v-.47h1.77v-.89h.56v.89h1.77ZM206,362.75c-1,0-1.65-.53-1.65-1.32s.67-1.34,1.65-1.34,1.66.53,1.66,1.34S207,362.75,206,362.75Zm0-.47c.67,0,1.12-.34,1.12-.85s-.45-.87-1.12-.87-1.11.35-1.11.87S205.38,362.28,206,362.28Zm-.42,2.53h4v.49h-4.61v-2.06h.57Zm4.77-4.11v.49h-1v2.48h-.57v-5.35h.57v2.38Z" transform="translate(0.05)"/><path class="cls-3" d="M52.42,372.91v1.92h2.12v-1.92h.56v4.82H51.86v-4.82Zm0,4.33h2.12V375.3H52.42Zm4.7-4.95v7.18h-.57v-7.18Z" transform="translate(0.05)"/><path class="cls-3" d="M63.05,375.81v.74h1v1.57H59.89v.78h4.34v.47H59.34v-1.68h4.12V377H59.32v-.45h1v-.74H58.56v-.48h6.26v.48Zm-3.79-2.17c0-.8.9-1.25,2.43-1.25s2.42.45,2.42,1.25-.9,1.24-2.42,1.24S59.26,374.43,59.26,373.64Zm.58,0c0,.5.69.79,1.85.79s1.85-.29,1.85-.79-.7-.8-1.85-.8S59.84,373.13,59.84,373.64Zm2.65,2.17H60.84v.74h1.65Z" transform="translate(0.05)"/><path class="cls-3" d="M69.42,375.35c0,1.51-.73,2.48-1.75,2.48s-1.76-1-1.76-2.48.73-2.48,1.76-2.48S69.42,373.84,69.42,375.35Zm-3,0c0,1.18.5,2,1.21,2s1.21-.78,1.21-2-.5-2-1.21-2S66.46,374.17,66.46,375.35Zm4.86-3.05v7.17h-.57V372.3Z" transform="translate(0.05)"/><path class="cls-3" d="M77,377.35c.68,0,1.37-.08,2-.16l0,.43a31.48,31.48,0,0,1-4.52.27l-.08-.5c.6,0,1.27,0,2,0v-1.45H75V373h3.5v.49H75.58v1.95h3v.49H77Zm3-5.05v7.17h-.56V372.3Z" transform="translate(0.05)"/><path class="cls-3" d="M87.85,378.05v.49H81.53v-.49H84.4v-1.89H82.35v-3.28H87v.49H82.92v2.3h4.19v.49H85v1.89Z" transform="translate(0.05)"/><path class="cls-3" d="M94.94,376.25v.49H88.63v-.49h2.88v-.79H89.46v-1.71h4.11V373H89.44v-.47h4.69v1.7H90V375h4.25v.46H92.08v.79Zm-5.6,1.06h4.82v2.08h-.57v-1.6H89.34Z" transform="translate(0.05)"/><path class="cls-3" d="M101.15,376.3a2.89,2.89,0,0,1-1.68-1.64,3,3,0,0,1-1.75,1.78l-.3-.46a2.57,2.57,0,0,0,1.75-2.34v-.33H97.59v-.49h3.72v.49H99.74v.33a2.42,2.42,0,0,0,1.7,2.19Zm-2.83.7h4.49v2.46h-.57v-2H98.32Zm5.53-2.3h-1v1.91h-.57v-4.3h.57v1.9h1Z" transform="translate(0.05)"/><path class="cls-3" d="M110.24,372.31v3.83h-.57v-1.62h-1.48a1.63,1.63,0,1,1,0-.49h1.48v-1.72Zm-2.58,2a1.24,1.24,0,0,0-2.47,0,1.24,1.24,0,0,0,2.47,0Zm2,2.23h.56v2.84h-4.42v-2.84h.56v.93h3.3Zm0,1.4h-3.3v1h3.3Z" transform="translate(0.05)"/><path class="cls-3" d="M119.63,377.43h-2.88v2h-.57v-2h-2.85v-.49h6.3Zm-.4-3.82h-5.57v-.48h2.52v-.88h.57v.88h2.48Zm-2.77.43c1.39,0,2.23.43,2.23,1.2s-.84,1.19-2.23,1.19-2.22-.43-2.22-1.19S115.07,374,116.46,374Zm0,.45c-1,0-1.64.28-1.64.75s.61.73,1.64.73,1.65-.28,1.65-.73S117.5,374.49,116.46,374.49Z" transform="translate(0.05)"/><path class="cls-3" d="M124.08,376.32a1.76,1.76,0,1,1,1.81-1.76A1.72,1.72,0,0,1,124.08,376.32Zm0-.51a1.25,1.25,0,1,0-1.24-1.25A1.21,1.21,0,0,0,124.08,375.81Zm3.94,3v.49h-4.65V377h.56v1.8Zm-.22-1.26h-.56v-5.23h.56Z" transform="translate(0.05)"/><path class="cls-3" d="M131.28,377.29c.51,0,1-.07,1.48-.14l0,.44a20.83,20.83,0,0,1-3.57.24l-.08-.49c.44,0,1,0,1.59,0V375.8h.55Zm1.15-1.44a2.54,2.54,0,0,1-1.42-1.42,2.59,2.59,0,0,1-1.5,1.59l-.29-.46a2.25,2.25,0,0,0,1.51-2.05v-.64h.56v.64a2.1,2.1,0,0,0,1.44,1.89Zm2.6-3.55v7.16h-.55v-3.7h-.89v3.31h-.53v-6.61h.53v2.82h.89v-3Z" transform="translate(0.05)"/><path class="cls-3" d="M138.64,373.46h1.75v.48h-4.11v-.48h1.79v-1.08h.57Zm1.41,2.74a1.68,1.68,0,1,1-1.69-1.63A1.59,1.59,0,0,1,140.05,376.2Zm-.54,0a1.14,1.14,0,1,0-1.15,1.15A1.11,1.11,0,0,0,139.51,376.2Zm3.29-.44h-1.16v3.7h-.57V372.3h.57v3h1.16Z" transform="translate(0.05)"/><path class="cls-3" d="M149.73,378.05v.49h-6.32v-.49h2.87v-1.89h-2.05v-3.28h4.68v.49h-4.12v2.3H149v.49h-2.14v1.89Z" transform="translate(0.05)"/><path class="cls-3" d="M156.82,376.25v.49h-6.31v-.49h2.88v-.79h-2v-1.71h4.1V373h-4.12v-.47H156v1.7h-4.11V375h4.25v.46H154v.79Zm-5.6,1.06H156v2.08h-.56v-1.6h-4.25Z" transform="translate(0.05)"/><path class="cls-3" d="M163.44,373.68h-4.1v-.47h1.77v-.89h.56v.89h1.77Zm-2.05,3.07c-1,0-1.66-.53-1.66-1.32s.67-1.34,1.66-1.34,1.65.53,1.65,1.34S162.37,376.75,161.39,376.75Zm0-.47c.66,0,1.11-.34,1.11-.85s-.45-.87-1.11-.87-1.12.35-1.12.87S160.72,376.28,161.39,376.28Zm-.43,2.53h4v.49h-4.61v-2.06H161Zm4.77-4.11v.49h-1v2.48h-.57v-5.35h.57v2.38Z" transform="translate(0.05)"/><path class="cls-3" d="M167.28,377.17a15.73,15.73,0,0,0,3.21-.25l.06.51a16.7,16.7,0,0,1-3.3.24h-.53V373h3.22v.48h-2.66Zm5.62-1.53h-1.17v3.83h-.56V372.3h.56v2.86h1.17Z" transform="translate(0.05)"/><path class="cls-3" d="M173.66,378.47a.48.48,0,1,1,.47.51A.49.49,0,0,1,173.66,378.47Z" transform="translate(0.05)"/><line class="cls-4" y1="241" x2="222.36" y2="241"/><line class="cls-4" y1="436.77" x2="222.36" y2="436.77"/><rect class="cls-5" x="341.47" y="241" width="427.2" height="143"/><path class="cls-3" d="M560.47,460.67h.5a2.17,2.17,0,0,1-2.19,1.78,2.48,2.48,0,0,1,0-5,2.16,2.16,0,0,1,2.19,1.77h-.5a1.67,1.67,0,0,0-1.69-1.3,2,2,0,0,0,0,4A1.66,1.66,0,0,0,560.47,460.67Z" transform="translate(0.05)"/><path class="cls-3" d="M566.6,462.35h-.48v-3.67l-1.59,2.73h-.32l-1.61-2.75,0,3.69h-.48v-4.76h.37l1.86,3.22,1.86-3.22h.37Z" transform="translate(0.05)"/><path class="cls-3" d="M569.82,460.65v1.7h-.49v-1.7h0l-1.91-3.06H568l1.61,2.59,1.62-2.59h.54Z" transform="translate(0.05)"/><path class="cls-3" d="M573,461.1v1.25h-.49v-4.76H573v2.83l2.64-2.83h.59l-2,2.17,2.23,2.59h-.61l-2-2.23Z" transform="translate(0.05)"/><path class="cls-3" d="M559.19,468.89l-2.14,4.46h-.54l2.07-4.3H556v-.46h3.15Z" transform="translate(0.05)"/><path class="cls-3" d="M563.7,471c0,1.46-.74,2.48-2,2.48s-2-1-2-2.48.73-2.49,2-2.49S563.7,469.5,563.7,471Zm-.5,0c0-1.19-.53-2-1.5-2s-1.5.85-1.5,2,.53,2,1.5,2S563.2,472.16,563.2,471Z" transform="translate(0.05)"/><path class="cls-3" d="M564.52,473.38a.25.25,0,0,1-.2-.26.32.32,0,0,1,.31-.33.32.32,0,0,1,.32.33c0,.07,0,.11-.1.31l-.36.88h-.3Z" transform="translate(0.05)"/><path class="cls-3" d="M569.43,471c0,1.46-.73,2.48-2,2.48s-2-1-2-2.48.73-2.49,2-2.49S569.43,469.5,569.43,471Zm-.5,0c0-1.19-.53-2-1.5-2s-1.5.85-1.5,2,.53,2,1.5,2S568.93,472.16,568.93,471Z" transform="translate(0.05)"/><path class="cls-3" d="M570.25,473.38a.25.25,0,0,1-.2-.26.32.32,0,0,1,.31-.33.32.32,0,0,1,.32.33c0,.07,0,.11-.1.31l-.36.88h-.3Z" transform="translate(0.05)"/><path class="cls-3" d="M574.49,473.35h-3v-.26l1.49-1.63c.6-.64,1-1,1-1.56a1,1,0,0,0-1-1,1,1,0,0,0-1.09.95h-.48a1.55,1.55,0,0,1,3.09,0c0,.59-.36,1-1.06,1.77l-1.17,1.27h2.32Z" transform="translate(0.05)"/><path class="cls-3" d="M579.22,471c0,1.46-.73,2.48-2,2.48s-2-1-2-2.48.73-2.49,2-2.49S579.22,469.5,579.22,471Zm-.5,0c0-1.19-.53-2-1.5-2s-1.5.85-1.5,2,.53,2,1.5,2S578.72,472.16,578.72,471Z" transform="translate(0.05)"/><path class="cls-3" d="M580,473.38a.26.26,0,0,1-.2-.26.32.32,0,0,1,.31-.33.32.32,0,0,1,.32.33c0,.07,0,.11-.1.31l-.36.88h-.3Z" transform="translate(0.05)"/><path class="cls-3" d="M585,471c0,1.46-.73,2.48-2,2.48s-2-1-2-2.48.74-2.49,2-2.49S585,469.5,585,471Zm-.49,0c0-1.19-.54-2-1.51-2s-1.5.85-1.5,2,.53,2,1.5,2S584.46,472.16,584.46,471Z" transform="translate(0.05)"/><path class="cls-3" d="M556.81,482.74h-.61v-.42h.65l.15-1.19h-.65v-.4H557l.18-1.45h.37l-.17,1.45h1l.18-1.45H559l-.18,1.45h.61v.4h-.65l-.15,1.19h.65v.42h-.7l-.18,1.61H558l.18-1.61h-1l-.19,1.61h-.37Zm1.45-.42.14-1.19h-1l-.14,1.19Z" transform="translate(0.05)"/><path class="cls-3" d="M563.07,484.35h-3v-.41h1.32v-3.8l-1.24.44v-.43l1.44-.56h.27v4.35h1.22Z" transform="translate(0.05)"/><path class="cls-3" d="M566.32,482.23l-.4-.28a1.35,1.35,0,0,0,.3-.84,1.24,1.24,0,0,0-2.47,0,1.18,1.18,0,0,0,1.23,1.21,1.26,1.26,0,0,0,.9-.33l0-.05.39.28-1.46,2.12h-.57l1.12-1.63a1.86,1.86,0,0,1-.42,0,1.65,1.65,0,1,1,0-3.29,1.63,1.63,0,0,1,1.71,1.65A2.07,2.07,0,0,1,566.32,482.23Z" transform="translate(0.05)"/><path class="cls-3" d="M571.47,483.05c0,.78-.66,1.3-1.69,1.3h-2v-4.76h2c.92,0,1.49.46,1.49,1.19a1.08,1.08,0,0,1-.8,1.1A1.13,1.13,0,0,1,571.47,483.05Zm-3.2-1.34h1.34c.75,0,1.16-.32,1.16-.87s-.41-.81-1.08-.81h-1.42Zm1.5,2.2c.77,0,1.23-.38,1.23-.91s-.46-.84-1.22-.84h-1.51v1.75Z" transform="translate(0.05)"/><path class="cls-3" d="M575.17,479.89,573,484.35h-.55l2.07-4.3H572v-.46h3.15Z" transform="translate(0.05)"/><path class="cls-3" d="M579.79,482.67h.5a2.17,2.17,0,0,1-2.2,1.78,2.48,2.48,0,0,1,0-5,2.17,2.17,0,0,1,2.2,1.77h-.5a1.68,1.68,0,0,0-1.7-1.3,2,2,0,0,0,0,4A1.67,1.67,0,0,0,579.79,482.67Z" transform="translate(0.05)"/><path class="cls-3" d="M583.06,479.59a2.29,2.29,0,0,1,2.43,2.34,2.32,2.32,0,0,1-2.43,2.42h-1.61v-4.76Zm0,4.3a1.87,1.87,0,0,0,1.93-2,1.84,1.84,0,0,0-1.93-1.89h-1.12v3.85Z" transform="translate(0.05)"/><circle class="cls-5" cx="534.31" cy="471.19" r="12.76" transform="translate(-138.85 238.18) rotate(-22.32)"/><path class="cls-5" d="M603.1,117.27a7,7,0,0,0,7,7h17.51a10.56,10.56,0,0,1,0,21.11h-47v2.8h47a13.36,13.36,0,0,0,0-26.71H610.06a4.16,4.16,0,1,1,0-8.31h30.86v-2.8H610.06A7,7,0,0,0,603.1,117.27Z" transform="translate(0.05)"/><path class="cls-5" d="M610.06,103.91a13.36,13.36,0,1,0,0,26.71h17.51a4.16,4.16,0,0,1,0,8.31H583.42V124.34h10v-2.8H580.62v20.17l47,0a7,7,0,0,0,0-13.91H610.06a10.56,10.56,0,1,1,0-21.11h30.86v-2.8Z" transform="translate(0.05)"/><polygon class="cls-5" points="506.99 103.91 504.19 103.91 504.19 132.43 475.68 103.91 469.18 103.91 469.18 148.13 471.98 148.13 471.98 106.71 474.52 106.71 506.99 139.19 506.99 103.91"/><polygon class="cls-5" points="510.59 145.33 508.05 145.33 475.58 112.86 475.58 148.13 478.38 148.13 478.38 119.62 506.89 148.13 513.39 148.13 513.39 103.91 510.59 103.91 510.59 145.33"/><path class="cls-5" d="M534.37,128.11l14.32-14.32L547,112.73a14.61,14.61,0,0,0-7-2.36H540l-.64,0c-.2,0-.41,0-.61,0a2.61,2.61,0,0,0-.28,0l-.51,0c-.41,0-.83.07-1.24.13l-.55.09-.18,0-.42.09-.57.14-.57.16-.48.15a15.69,15.69,0,1,0,16.13,26,15.64,15.64,0,0,0,4.51-12.75l-2.72,2.72a12.92,12.92,0,1,1-7.61-12.84l-11.89,11.89Z" transform="translate(0.05)"/><path class="cls-5" d="M557.73,121.23a19.33,19.33,0,1,1-5.06-8.87c.18.17.35.35.52.54l.74.74-17,17,2,2,19-19-3.25-3.25A22.09,22.09,0,1,0,560,119Z" transform="translate(0.05)"/><polygon class="cls-5" points="574.27 115.14 564.32 115.14 564.32 117.94 577.07 117.94 577.07 103.91 574.27 103.91 574.27 115.14"/><polygon class="cls-5" points="593.42 115.14 583.47 115.14 583.47 103.91 580.67 103.91 580.67 117.94 593.42 117.94 593.42 115.14"/><polygon class="cls-5" points="564.32 124.34 574.27 124.34 574.27 148.13 577.07 148.13 577.07 121.54 564.32 121.54 564.32 124.34"/><path class="cls-5" d="M554.25,104.06a6.06,6.06,0,1,0-6-6.06A6.07,6.07,0,0,0,554.25,104.06Zm0-9.31A3.26,3.26,0,1,1,551,98,3.26,3.26,0,0,1,554.25,94.75Z" transform="translate(0.05)"/><path class="cls-5" d="M487.86,168.21a27.49,27.49,0,0,1-2.78.36c-.92.07-1.81.11-2.66.11h-.85v-9h1.82v7.49c.59,0,1.25-.05,2-.11s1.46-.17,2.19-.3Zm-1.7-5.49h2.29v-4h1.77V171.4h-1.77v-7.19h-2.29Zm4.91,9.36V158.4h1.78v13.68Z" transform="translate(0.05)"/><path class="cls-5" d="M508.23,170.27v-1.49h12.71v1.49Zm1.55-9h9.65v1.45h-3.74a3.42,3.42,0,0,0,.61,1.22,4.79,4.79,0,0,0,1,.91,6,6,0,0,0,1.27.64,8.52,8.52,0,0,0,1.44.41l-.59,1.4a8.66,8.66,0,0,1-2.83-1.07,5.47,5.47,0,0,1-2-1.95,5.5,5.5,0,0,1-2,1.95,8.84,8.84,0,0,1-2.83,1.07l-.59-1.4a8.52,8.52,0,0,0,1.44-.41,5.32,5.32,0,0,0,1.26-.64,4.79,4.79,0,0,0,1-.91,3.42,3.42,0,0,0,.61-1.22h-3.75Zm2.35-2.21h4.94v1.46h-4.94Z" transform="translate(0.05)"/><path class="cls-5" d="M543.62,166.11v2.67H549v1.49H536.33v-1.49h5.47v-2.67h-3.71v-6.68h9.24v6.68Zm1.89-5.2h-5.59v3.72h5.59Z" transform="translate(0.05)"/><path class="cls-5" d="M571.2,159v6.16h-6.78V159h1.81v1.72h3.16V159Zm-5,13v-3.64h7.45v-.68h-7.45v-1.46h9.26v3.59H568v.74h7.65V172Zm3.21-8.34v-1.45h-3.16v1.45Zm6.05,2h-1.81V158.4h1.81Z" transform="translate(0.05)"/><path class="cls-5" d="M598.87,168.08a21.56,21.56,0,0,1-3.49.64,33,33,0,0,1-3.41.18h-.9v-5.52h4.66v-2.19H591v-1.5h6.53v5.19h-4.68v2.52a22.52,22.52,0,0,0,2.78-.21,24.11,24.11,0,0,0,2.89-.55Zm3.22,3.95h-1.81V158.4h1.81Z" transform="translate(0.05)"/><path class="cls-5" d="M625.27,168.11a21.53,21.53,0,0,1-3.49.63c-1.16.11-2.29.16-3.41.16h-.9v-9.21h6.8v1.5h-5v2.11h4.81v1.5H619.3v2.6a23.69,23.69,0,0,0,5.66-.72Zm3.21,3.92h-1.81V158.4h1.81Z" transform="translate(0.05)"/><path class="cls-6" d="M603.1,297.75a7,7,0,0,0,7,6.95h17.51a10.56,10.56,0,0,1,0,21.11h-47v2.8h47a13.36,13.36,0,0,0,0-26.71H610.06a4.15,4.15,0,1,1,0-8.3h30.86v-2.8H610.06A7,7,0,0,0,603.1,297.75Z" transform="translate(0.05)"/><path class="cls-6" d="M610.06,284.4a13.35,13.35,0,1,0,0,26.7h17.51a4.16,4.16,0,0,1,0,8.31H583.42V304.82h10V302H580.62v20.17l47,0a7,7,0,0,0,0-13.91H610.06a10.55,10.55,0,1,1,0-21.1h30.86v-2.8Z" transform="translate(0.05)"/><polygon class="cls-6" points="506.99 284.4 504.19 284.4 504.19 312.91 475.68 284.4 469.18 284.4 469.18 328.61 471.98 328.61 471.98 287.2 474.52 287.2 506.99 319.67 506.99 284.4"/><polygon class="cls-6" points="510.59 325.81 508.05 325.81 475.58 293.35 475.58 328.61 478.38 328.61 478.38 300.1 506.89 328.61 513.39 328.61 513.39 284.4 510.59 284.4 510.59 325.81"/><path class="cls-6" d="M534.37,308.6l14.32-14.32L547,293.22a14.52,14.52,0,0,0-7-2.37H540l-.64,0h-.89a4.36,4.36,0,0,0-.51,0c-.41,0-.83.06-1.24.12l-.55.09-.18,0-.42.08-.57.14-.57.16-.48.15a15.9,15.9,0,0,0-1.92.8,15.41,15.41,0,0,0-4.68,3.55,15.69,15.69,0,1,0,27.24,8.85l-2.72,2.72a12.93,12.93,0,0,1-22.64,7.4,12.91,12.91,0,0,1,15-20.24l-11.89,11.9Z" transform="translate(0.05)"/><path class="cls-6" d="M557.73,301.72a19.33,19.33,0,1,1-5.06-8.88l.52.54.74.74-17,17,2,2,19-19-3.25-3.25a22.11,22.11,0,1,0,5.33,8.61Z" transform="translate(0.05)"/><polygon class="cls-6" points="574.27 295.62 564.32 295.62 564.32 298.42 577.07 298.42 577.07 284.4 574.27 284.4 574.27 295.62"/><polygon class="cls-6" points="593.42 295.62 583.47 295.62 583.47 284.4 580.67 284.4 580.67 298.42 593.42 298.42 593.42 295.62"/><polygon class="cls-6" points="564.32 304.82 574.27 304.82 574.27 328.61 577.07 328.61 577.07 302.02 564.32 302.02 564.32 304.82"/><path class="cls-6" d="M554.25,284.54a6.05,6.05,0,1,0-6-6.05A6.07,6.07,0,0,0,554.25,284.54Zm0-9.3a3.25,3.25,0,1,1-3.25,3.25A3.26,3.26,0,0,1,554.25,275.24Z" transform="translate(0.05)"/><path class="cls-6" d="M487.86,348.69a27.49,27.49,0,0,1-2.78.36c-.92.08-1.81.11-2.66.11h-.85v-9h1.82v7.48c.59,0,1.25,0,2-.11a20.56,20.56,0,0,0,2.19-.3Zm-1.7-5.48h2.29v-4h1.77v12.71h-1.77v-7.2h-2.29Zm4.91,9.35V338.88h1.78v13.68Z" transform="translate(0.05)"/><path class="cls-6" d="M508.23,350.75v-1.48h12.71v1.48Zm1.55-9h9.65v1.46h-3.74a3.37,3.37,0,0,0,.61,1.21,4.53,4.53,0,0,0,1,.91,6.08,6.08,0,0,0,1.27.65,8.5,8.5,0,0,0,1.44.4l-.59,1.4a8.44,8.44,0,0,1-2.83-1.07,5.52,5.52,0,0,1-2-1.94,5.55,5.55,0,0,1-2,1.94,8.61,8.61,0,0,1-2.83,1.07l-.59-1.4a8.5,8.5,0,0,0,1.44-.4,5.35,5.35,0,0,0,1.26-.65,4.53,4.53,0,0,0,1-.91,3.37,3.37,0,0,0,.61-1.21h-3.75Zm2.35-2.21h4.94V341h-4.94Z" transform="translate(0.05)"/><path class="cls-6" d="M543.62,346.59v2.68H549v1.48H536.33v-1.48h5.47v-2.68h-3.71v-6.68h9.24v6.68Zm1.89-5.19h-5.59v3.72h5.59Z" transform="translate(0.05)"/><path class="cls-6" d="M571.2,339.47v6.16h-6.78v-6.12h1.81v1.73h3.16v-1.77Zm-5,13v-3.65h7.45v-.68h-7.45v-1.45h9.26v3.59H568v.73h7.65v1.46Zm3.21-8.34v-1.46h-3.16v1.46Zm6.05,2h-1.81v-7.27h1.81Z" transform="translate(0.05)"/><path class="cls-6" d="M598.87,348.56a22.75,22.75,0,0,1-3.49.65,33,33,0,0,1-3.41.17h-.9v-5.51h4.66v-2.19H591v-1.5h6.53v5.19h-4.68v2.51a22.46,22.46,0,0,0,2.78-.2,26.31,26.31,0,0,0,2.89-.56Zm3.22,4h-1.81V338.88h1.81Z" transform="translate(0.05)"/><path class="cls-6" d="M625.27,348.59a20.5,20.5,0,0,1-3.49.63c-1.16.11-2.29.16-3.41.16h-.9v-9.2h6.8v1.5h-5v2.1h4.81v1.5H619.3v2.6a22.41,22.41,0,0,0,5.66-.72Zm3.21,3.93h-1.81V338.88h1.81Z" transform="translate(0.05)"/></svg>